<?xml version="1.0" standalone="no"?>
<!DOCTYPE svg PUBLIC "-//W3C//DTD SVG 20010904//EN"
 "http://www.w3.org/TR/2001/REC-SVG-20010904/DTD/svg10.dtd">
<svg version="1.0" xmlns="http://www.w3.org/2000/svg"
 width="720" height="481" viewBox="0 0 720.000000 481.000000"
 preserveAspectRatio="xMidYMid meet">

<g transform="translate(0.000000,481.000000) scale(0.100000,-0.100000)"
fill="#e69005" stroke="none">
<path d="M3261 4791 l-24 -18 71 -7 c39 -4 98 -4 132 0 l61 7 -28 18 c-40 27
-178 27 -212 0z"/>
<path d="M3910 4654 c-96 -85 -181 -161 -189 -169 -12 -12 -8 -22 30 -69 24
-30 47 -55 51 -56 5 0 227 299 295 399 23 33 23 52 0 50 -7 0 -91 -70 -187
-155z"/>
<path d="M3196 4714 c-9 -8 -16 -31 -16 -49 0 -61 13 -65 190 -65 153 0 159 1
174 22 9 12 16 32 16 43 0 11 -7 31 -16 43 -15 21 -21 22 -174 22 -131 0 -161
-3 -174 -16z"/>
<path d="M4646 4628 c-20 -19 -40 -74 -102 -288 -42 -146 -79 -276 -83 -290
-4 -14 -6 -45 -3 -69 3 -30 0 -46 -9 -52 -21 -13 -26 -12 -69 27 -51 46 -62
39 -19 -11 33 -37 34 -37 93 -31 33 3 73 14 90 24 35 21 433 338 484 385 53
50 37 117 -28 117 -21 0 -61 -26 -153 -99 -122 -97 -141 -118 -132 -144 3 -7
-23 -34 -60 -62 -44 -34 -62 -55 -58 -65 16 -42 14 -60 -10 -84 -31 -31 -70
-33 -97 -6 -42 42 -7 120 55 120 19 0 25 11 44 74 16 56 26 76 42 81 25 8 29
18 79 193 40 140 40 143 23 172 -21 36 -52 39 -87 8z"/>
<path d="M3550 4483 l0 -111 53 -73 c44 -63 57 -74 84 -77 24 -2 43 -15 72
-49 39 -47 40 -47 34 -114 -5 -58 -3 -72 16 -103 32 -51 78 -76 140 -76 62 0
101 18 135 63 38 49 43 111 14 167 -32 63 -77 90 -147 90 l-56 0 -154 180
c-85 99 -162 187 -172 196 -18 17 -19 14 -19 -93z m130 -119 c11 -12 11 -18
-2 -30 -18 -18 -48 -8 -48 15 0 33 28 42 50 15z m327 -260 c47 -30 36 -116
-20 -142 -34 -16 -91 -1 -107 28 -18 33 -12 85 13 107 38 35 66 37 114 7z"/>
<path d="M3220 4520 c0 -27 3 -50 6 -50 9 0 113 84 113 93 1 4 -26 7 -59 7
l-60 0 0 -50z"/>
<path d="M3313 4498 l-93 -73 0 -53 c0 -41 3 -51 13 -45 49 29 286 220 283
228 -1 6 -27 11 -57 13 -53 2 -55 1 -146 -70z"/>
<path d="M2345 4540 c-4 -7 -3 -16 3 -22 14 -14 45 -2 40 15 -6 16 -34 21 -43
7z"/>
<path d="M2461 4511 c-12 -22 -21 -47 -21 -56 0 -18 4 -18 -66 0 -31 8 -61 12
-65 9 -17 -10 -10 -108 10 -140 l19 -31 -60 -6 c-37 -3 -71 -13 -87 -25 -96
-71 -95 -194 2 -266 27 -20 42 -21 334 -24 304 -3 306 -3 329 19 27 25 32 70
9 89 -13 11 -13 15 0 41 31 59 7 131 -50 155 -19 8 -61 14 -95 14 l-60 0 20
33 c20 32 29 131 12 141 -7 4 -65 -6 -107 -19 -17 -5 -23 3 -40 47 -27 70 -55
77 -84 19z m54 -71 c8 -45 -2 -120 -15 -120 -14 0 -23 66 -16 115 9 56 22 58
31 5z m-75 -101 c6 -23 9 -44 5 -47 -3 -4 -23 2 -43 13 -27 14 -40 31 -49 58
-18 52 -9 61 37 37 31 -16 41 -28 50 -61z m210 43 c-15 -52 -23 -63 -51 -77
-52 -27 -59 -21 -40 31 12 34 25 52 50 65 42 22 52 17 41 -19z m158 -158 c28
-19 30 -74 4 -98 -17 -15 -48 -16 -288 -14 -231 3 -269 5 -269 18 0 13 38 16
265 20 257 5 265 6 265 25 0 19 -8 20 -265 23 -256 2 -267 2 -288 -18 -28 -26
-29 -73 -2 -100 19 -19 33 -20 310 -20 283 0 290 0 290 -20 0 -20 -7 -20 -290
-20 -315 0 -332 3 -360 54 -28 53 -12 118 38 149 39 24 555 25 590 1z"/>
<path d="M2612 4533 c4 -22 43 -25 43 -3 0 8 -11 16 -23 18 -19 3 -23 0 -20
-15z"/>
<path d="M3363 4388 l-143 -111 0 -54 0 -55 38 29 c22 15 89 66 150 113 l111
85 0 53 c1 28 -2 52 -6 51 -5 0 -72 -50 -150 -111z"/>
<path d="M3370 4244 c-74 -58 -139 -110 -144 -115 -6 -5 17 -9 60 -9 l69 0 83
65 82 65 0 50 c0 28 -3 50 -7 50 -5 -1 -69 -48 -143 -106z"/>
<path d="M3545 4250 c0 -33 3 -60 6 -60 8 0 49 45 49 54 0 9 -42 66 -49 66 -3
0 -6 -27 -6 -60z"/>
<path d="M0 2527 l0 -1734 488 -107 c268 -60 546 -121 617 -137 1382 -309
2475 -549 2495 -549 20 0 1113 240 2495 549 72 16 349 77 618 137 l487 107 0
1734 0 1733 -960 0 -960 0 0 -100 0 -100 860 0 860 0 0 -1549 c0 -1467 -1
-1550 -17 -1555 -15 -4 -2211 -491 -3120 -692 l-263 -58 -262 58 c-910 201
-3106 688 -3121 692 -16 5 -17 88 -17 1555 l0 1549 860 0 860 0 0 100 0 100
-960 0 -960 0 0 -1733z"/>
<path d="M3460 4164 c-25 -20 -47 -38 -49 -40 -2 -2 21 -4 52 -4 l57 0 0 40
c0 22 -3 40 -7 40 -5 0 -28 -16 -53 -36z"/>
<path d="M3225 4083 c-34 -9 -45 -24 -45 -63 0 -64 15 -70 186 -70 164 0 180
4 190 55 4 22 0 38 -16 58 l-21 27 -137 -1 c-75 -1 -146 -4 -157 -6z"/>
<path d="M4494 4055 c-32 -50 22 -103 72 -70 26 17 33 62 12 83 -21 21 -66 14
-84 -13z"/>
<path d="M3264 3894 c19 -17 36 -24 50 -20 12 3 49 6 82 6 47 0 68 5 85 20
l24 19 -135 0 -135 0 29 -25z"/>
<path d="M2579 3795 c-189 -38 -370 -158 -474 -315 -131 -197 -161 -451 -80
-683 36 -103 81 -173 176 -268 74 -75 99 -93 190 -137 137 -67 231 -86 388
-79 139 6 207 23 326 81 191 94 332 272 386 487 20 78 18 287 -4 369 -9 36
-38 107 -63 158 -75 153 -216 281 -384 349 -127 51 -317 67 -461 38z m322
-235 c153 -52 281 -183 329 -338 39 -125 24 -295 -36 -414 -30 -59 -121 -158
-182 -196 -151 -97 -382 -98 -531 -3 -108 70 -201 197 -230 316 -29 117 -11
277 44 386 29 57 113 150 173 191 112 77 300 102 433 58z"/>
<path d="M730 3665 l0 -115 405 0 c223 0 405 -2 405 -4 0 -3 -189 -236 -420
-518 l-420 -513 0 -97 0 -98 600 0 600 0 0 115 0 115 -425 0 c-234 0 -425 3
-425 6 0 3 187 235 416 514 l417 509 -1 98 -1 98 -575 3 -576 2 0 -115z"/>
<path d="M3710 3050 l0 -730 125 0 125 0 2 524 3 524 405 -523 405 -524 133
-1 132 0 0 730 0 730 -120 0 -120 0 -2 -541 -3 -542 -410 528 c-225 291 -416
534 -423 542 -10 9 -47 13 -133 13 l-119 0 0 -730z"/>
<path d="M5761 3738 c-10 -24 -154 -351 -320 -727 -165 -376 -301 -685 -301
-687 0 -3 59 -3 132 -2 l132 3 70 163 71 162 364 -2 364 -3 72 -160 71 -160
109 -3 c61 -2 120 0 131 2 20 5 -1 56 -297 728 l-318 723 -130 3 -131 3 -19
-43z m281 -565 l126 -288 -256 -3 c-140 -1 -257 -1 -259 1 -5 5 249 577 256
577 4 0 63 -129 133 -287z"/>
<path d="M717 2213 c-4 -3 -7 -30 -7 -60 l0 -53 2995 0 2996 0 -3 58 -3 57
-2986 3 c-1642 1 -2989 -1 -2992 -5z"/>
<path d="M1020 1987 c0 -2 69 -175 153 -383 l153 -379 76 -3 75 -3 155 386
155 386 -76 -3 -76 -3 -114 -277 c-63 -153 -118 -278 -122 -278 -4 0 -9 8 -11
18 -3 10 -54 136 -113 280 l-108 262 -73 0 c-41 0 -74 -2 -74 -3z"/>
<path d="M3550 1605 l0 -385 65 0 65 0 0 385 0 385 -65 0 -65 0 0 -385z"/>
<path d="M5550 1606 l0 -386 65 0 64 0 3 113 3 112 140 6 c145 5 182 14 247
60 48 35 78 110 78 199 0 107 -14 147 -68 200 -68 66 -96 72 -329 77 l-203 5
0 -386z m394 244 c16 -8 39 -28 50 -43 28 -38 28 -128 1 -174 -30 -52 -67 -63
-199 -63 l-116 0 0 151 0 151 118 -4 c79 -2 127 -8 146 -18z"/>
<path d="M3549 973 l-45 -118 -127 -9 c-70 -5 -127 -12 -127 -15 1 -3 37 -35
81 -71 122 -99 115 -79 80 -216 -16 -65 -28 -120 -26 -122 2 -2 51 27 109 63
l106 67 106 -67 c58 -36 107 -65 109 -63 2 2 -10 57 -26 123 l-31 120 54 48
c29 26 72 62 95 80 23 17 43 35 43 38 0 3 -57 10 -127 15 l-128 9 -45 118
c-25 64 -47 117 -50 117 -3 0 -26 -53 -51 -117z"/>
<path d="M1702 858 c-10 -4 5 -7 34 -7 44 -1 1307 -83 1437 -94 26 -2 47 -1
47 2 0 3 -29 27 -63 53 l-63 48 -688 2 c-378 2 -694 0 -704 -4z"/>
<path d="M4060 819 c-69 -53 -83 -70 -53 -64 10 3 340 25 733 50 393 25 733
50 755 54 23 5 -265 9 -665 9 l-705 1 -65 -50z"/>
</g>
</svg>
