<?xml version="1.0" standalone="no"?>
<!DOCTYPE svg PUBLIC "-//W3C//DTD SVG 20010904//EN"
 "http://www.w3.org/TR/2001/REC-SVG-20010904/DTD/svg10.dtd">
<svg version="1.0" xmlns="http://www.w3.org/2000/svg"
 width="3646.000000pt" height="2968.000000pt" viewBox="0 0 3646.000000 2968.000000"
 preserveAspectRatio="xMidYMid meet">

<g transform="translate(0.000000,2968.000000) scale(0.100000,-0.100000)"
fill="#e69005" stroke="none">
<path d="M22500 29643 c-217 -37 -383 -106 -538 -225 -43 -33 -190 -184 -342
-349 -31 -34 -227 -244 -260 -279 -14 -15 -49 -53 -79 -86 -30 -32 -107 -115
-171 -184 -64 -69 -141 -152 -171 -184 -30 -33 -65 -71 -79 -86 -14 -14 -72
-77 -130 -139 -58 -62 -116 -125 -130 -140 -14 -15 -70 -75 -125 -135 -55 -59
-111 -120 -125 -135 -72 -77 -238 -257 -260 -280 -14 -15 -77 -83 -140 -152
-64 -68 -147 -158 -185 -199 -39 -41 -77 -82 -85 -90 -8 -9 -60 -65 -115 -125
-55 -59 -111 -120 -125 -135 -14 -14 -70 -75 -125 -135 -55 -60 -109 -118
-121 -129 -11 -12 -49 -52 -84 -91 -58 -64 -283 -306 -321 -345 -8 -9 -68 -73
-132 -143 -63 -69 -124 -134 -134 -144 -10 -11 -63 -68 -118 -128 -55 -60
-109 -118 -121 -129 -11 -12 -49 -52 -84 -91 -35 -38 -95 -104 -134 -145 -39
-42 -116 -125 -171 -185 -55 -60 -107 -116 -115 -124 -16 -17 -78 -84 -270
-291 -63 -68 -147 -158 -186 -200 -39 -41 -102 -109 -139 -150 -38 -41 -72
-77 -75 -80 -3 -3 -60 -63 -125 -135 -65 -71 -121 -132 -125 -135 -4 -3 -60
-63 -125 -135 -66 -71 -124 -134 -131 -140 -6 -5 -62 -66 -125 -135 -63 -69
-142 -154 -176 -190 -205 -217 -309 -445 -326 -715 -3 -44 -10 -81 -15 -83
-24 -8 -114 -82 -147 -122 -78 -93 -110 -196 -104 -334 l4 -81 -80 -12 c-101
-14 -231 -10 -315 12 -36 9 -105 36 -155 60 -224 110 -360 286 -425 550 -17
66 -66 268 -111 450 -92 381 -102 404 -177 405 -67 0 -112 -44 -112 -109 0
-16 29 -152 65 -302 36 -151 75 -314 86 -364 90 -379 179 -539 392 -710 241
-193 548 -260 867 -190 88 20 89 20 133 -22 115 -110 308 -211 462 -244 28 -6
64 -13 80 -17 17 -4 98 -6 180 -6 118 0 173 5 255 23 58 13 125 27 150 32 25
5 86 17 135 28 126 27 289 60 328 66 17 3 39 8 47 10 8 2 26 6 40 9 14 3 79
17 145 31 141 30 209 44 250 51 17 2 37 7 45 9 8 2 31 7 50 10 19 3 49 10 65
14 17 5 48 12 70 16 80 14 90 16 105 20 8 3 33 7 54 11 22 3 50 10 64 15 14 5
27 7 29 5 3 -3 15 -1 28 4 13 5 42 12 66 15 24 4 46 8 49 10 3 2 25 6 50 10
25 4 47 8 51 10 3 2 21 7 40 10 19 3 41 8 49 10 8 2 31 7 50 10 19 3 42 8 50
10 8 2 31 7 50 10 19 3 43 8 52 11 9 3 27 7 40 9 13 3 34 7 48 10 14 3 36 7
50 10 14 3 36 7 50 10 14 3 35 7 48 10 13 2 31 7 40 9 9 3 34 8 55 10 21 3 41
7 45 10 4 2 23 7 42 10 66 10 142 26 148 30 4 2 27 7 52 11 25 4 47 8 50 10 3
2 25 6 49 10 24 3 53 10 66 15 13 5 25 7 28 4 2 -2 15 0 29 5 14 5 42 12 64
15 21 4 46 8 54 11 15 4 25 6 105 20 22 4 54 11 70 16 17 4 45 11 62 14 44 7
201 39 348 70 66 14 129 28 140 29 11 2 90 18 175 36 85 18 216 45 290 60 74
15 203 42 285 59 83 17 218 45 300 62 83 17 191 40 240 50 50 11 113 24 140
29 28 5 91 18 140 29 50 10 158 33 240 50 83 17 215 44 295 61 80 17 213 44
295 61 234 48 421 87 530 110 55 12 118 25 140 29 22 4 65 13 95 19 30 6 69
14 85 17 17 2 37 7 45 9 8 2 31 7 50 10 19 3 49 10 65 15 17 5 50 12 75 16 25
4 47 8 50 9 3 0 21 4 40 8 19 4 44 9 55 12 93 20 168 36 201 41 21 3 41 7 44
9 3 2 25 6 49 10 24 3 54 10 67 15 13 5 24 8 24 5 0 -2 14 0 32 5 17 5 49 12
71 15 21 4 50 11 64 16 14 5 28 7 30 5 3 -3 15 -1 28 4 13 5 42 12 66 15 24 4
46 8 49 10 3 2 23 6 45 9 22 4 47 8 55 11 8 2 26 6 40 9 14 2 59 12 100 21 41
9 93 21 115 25 57 13 190 66 255 102 281 157 488 457 540 778 21 134 8 356
-25 420 -20 38 -63 54 -125 45 l-50 -7 -16 37 c-72 174 -254 332 -449 391 -63
19 -265 26 -335 12 -19 -4 -89 -19 -155 -33 -158 -33 -213 -44 -255 -51 -19
-3 -37 -7 -40 -9 -3 -2 -25 -6 -49 -10 -24 -3 -54 -11 -68 -16 -14 -5 -28 -7
-30 -5 -3 3 -15 1 -27 -4 -13 -4 -40 -11 -62 -14 -21 -4 -46 -8 -54 -11 -8 -2
-27 -6 -43 -9 -15 -3 -35 -7 -45 -10 -9 -3 -34 -7 -56 -11 -21 -3 -41 -7 -45
-9 -3 -3 -26 -7 -51 -11 -25 -4 -47 -8 -50 -10 -3 -2 -25 -6 -49 -10 -24 -3
-53 -10 -66 -15 -13 -5 -25 -7 -28 -4 -2 2 -15 0 -29 -5 -14 -5 -40 -12 -59
-15 -62 -10 -241 -46 -248 -50 -3 -2 -22 -7 -41 -10 -36 -5 -134 -25 -375 -75
-77 -16 -207 -43 -290 -60 -82 -17 -215 -44 -295 -61 -296 -62 -617 -128 -663
-135 -18 -3 -41 -9 -52 -12 -11 -3 -29 -7 -40 -9 -11 -2 -76 -15 -145 -30 -69
-14 -134 -28 -145 -30 -11 -1 -52 -10 -91 -18 -39 -9 -88 -18 -110 -22 -21 -3
-42 -8 -45 -10 -4 -2 -25 -6 -47 -9 -23 -3 -52 -9 -66 -15 -15 -5 -26 -8 -26
-5 0 2 -14 0 -32 -5 -17 -5 -49 -12 -71 -15 -60 -9 -216 -63 -247 -85 -15 -11
-32 -20 -37 -20 -10 0 -61 -44 -135 -117 -42 -41 -72 -84 -109 -157 -55 -109
-78 -196 -79 -292 l0 -61 -42 -12 c-24 -6 -101 -23 -173 -37 -71 -14 -191 -39
-265 -54 -74 -15 -205 -42 -290 -60 -85 -18 -216 -45 -290 -60 -74 -15 -205
-42 -290 -60 -85 -18 -216 -45 -290 -60 -481 -100 -525 -109 -565 -116 -16 -2
-37 -7 -45 -9 -8 -2 -31 -7 -50 -10 -19 -3 -39 -10 -43 -14 -5 -5 -2 -33 7
-62 21 -78 28 -141 28 -253 -1 -102 -3 -119 -28 -223 -51 -214 -190 -423 -369
-556 -295 -219 -660 -262 -995 -118 -290 125 -496 372 -576 691 -24 93 -27
335 -5 420 57 233 145 388 302 533 119 110 328 219 465 242 21 3 62 10 89 15
44 7 213 5 270 -3 201 -30 392 -124 538 -266 l58 -56 62 65 c53 56 258 276
337 361 14 15 70 76 125 135 55 60 109 118 120 130 65 69 155 165 260 279 66
71 152 163 191 205 39 41 97 104 130 139 32 35 70 76 84 91 14 14 70 75 125
134 55 59 112 121 127 136 l27 29 88 -43 c109 -54 216 -76 333 -71 104 5 121
9 211 41 145 52 199 95 419 334 125 135 126 136 266 286 66 71 149 161 184
199 35 39 73 79 84 91 12 11 66 69 121 129 55 60 107 116 115 125 8 8 46 49
84 90 107 115 298 321 326 351 14 15 71 76 125 135 55 60 114 122 130 140 17
17 75 80 130 139 55 60 111 121 125 135 14 15 70 76 125 135 55 60 107 116
115 125 8 8 46 49 84 90 38 41 101 109 140 150 39 42 123 132 186 200 64 69
147 159 185 200 39 41 95 102 126 135 109 116 159 192 194 296 71 207 46 436
-66 609 l-40 62 31 34 c49 56 52 104 8 159 -61 78 -292 213 -423 248 -33 8
-80 21 -105 27 -44 12 -292 22 -340 13z"/>
<path d="M17855 29489 c-3043 -122 -5909 -1140 -8330 -2958 -572 -430 -1058
-853 -1597 -1392 l-316 -316 14 -59 c39 -165 -9 -329 -130 -450 -102 -102
-217 -147 -365 -142 l-84 2 -38 -44 -39 -45 98 -6 c53 -4 138 -16 187 -28 104
-25 283 -109 365 -172 l54 -42 56 64 c1414 1625 3096 2867 5030 3716 2442
1072 5170 1426 7840 1017 91 -14 172 -27 181 -30 13 -4 18 5 23 43 26 186 75
350 152 512 31 62 54 114 52 116 -5 5 -376 63 -568 89 -833 113 -1763 158
-2585 125z"/>
<path d="M24006 28323 c-13 -169 -66 -376 -135 -527 l-30 -67 37 -16 c2400
-999 4505 -2677 6038 -4813 187 -260 514 -755 514 -777 0 -4 -5865 -1867
-13033 -4139 l-13032 -4131 -7 41 c-12 71 -28 571 -28 862 0 704 60 1480 165
2149 43 269 49 227 -48 325 -183 185 -300 333 -433 549 -40 63 -53 79 -57 65
-10 -31 -95 -471 -116 -599 -197 -1164 -256 -2367 -175 -3521 l6 -90 -1811
-574 c-996 -316 -1809 -575 -1807 -577 1 -2 632 107 1402 242 l1399 246 14875
4720 14875 4721 1017 516 c559 284 1016 517 1015 519 -1 1 -789 -248 -1751
-553 -962 -305 -1752 -554 -1756 -554 -4 0 -49 68 -101 152 -392 638 -916
1347 -1428 1933 -330 377 -820 879 -1161 1190 -1262 1147 -2658 2047 -4194
2702 -121 51 -223 93 -226 93 -4 0 -10 -39 -14 -87z"/>
<path d="M7090 24839 c-114 -52 -192 -182 -176 -297 15 -110 89 -203 193 -242
68 -25 128 -25 195 0 76 28 122 71 159 145 29 60 31 70 27 144 -7 115 -55 189
-158 243 -63 32 -177 36 -240 7z"/>
<path d="M8842 24840 c-72 -33 -97 -56 -170 -158 -193 -271 -358 -608 -456
-933 -35 -117 -95 -395 -97 -447 -1 -65 -7 -65 -104 -5 -261 162 -581 290
-870 348 -151 30 -374 55 -490 55 -118 0 -215 -47 -272 -132 -51 -75 -53 -97
-53 -494 0 -422 13 -564 69 -774 11 -41 18 -76 16 -79 -6 -6 -85 60 -149 126
-102 104 -186 243 -235 387 l-17 49 -101 -159 c-160 -253 -343 -562 -343 -578
0 -3 18 1 40 9 54 19 267 70 370 89 147 26 428 50 446 38 5 -4 27 -52 49 -107
49 -126 110 -244 189 -365 61 -94 188 -252 240 -299 14 -14 26 -28 26 -33 0
-4 -226 -8 -502 -8 -613 0 -743 -12 -1002 -91 -677 -207 -1202 -756 -1379
-1441 -13 -51 -30 -127 -36 -168 -6 -41 -16 -94 -21 -118 -13 -55 -13 -389 0
-444 5 -24 15 -77 21 -118 90 -574 452 -1102 969 -1413 200 -120 474 -220 700
-256 41 -7 98 -17 125 -22 61 -12 7354 -7 7400 5 227 60 360 136 492 280 98
107 169 250 212 429 13 56 15 251 2 293 -5 16 -14 54 -21 84 -17 74 -80 208
-134 283 -43 61 -124 143 -201 203 l-40 31 49 54 c60 67 153 203 196 289 68
135 104 248 149 468 13 65 14 327 2 385 -5 23 -15 71 -22 107 -98 521 -525
970 -1056 1110 -176 47 -247 50 -1080 50 -431 0 -783 3 -783 6 0 4 30 39 68
78 246 261 423 614 496 986 31 160 38 284 34 665 l-3 380 -25 48 c-53 104
-161 167 -289 167 -75 0 -248 -15 -356 -31 -343 -50 -729 -194 -1009 -375 -48
-31 -88 -55 -90 -53 -3 2 -14 58 -26 124 -58 329 -154 623 -297 909 -67 136
-187 333 -262 433 -56 74 -76 93 -129 120 -54 28 -74 33 -130 33 -45 0 -81 -7
-110 -20z m148 -902 c139 -303 220 -632 238 -968 21 -399 -40 -771 -187 -1139
-51 -125 -78 -181 -91 -181 -21 0 -120 242 -174 425 -79 270 -101 433 -101
745 0 314 22 478 101 752 51 180 153 428 175 428 5 0 23 -28 39 -62z m-1962
-864 c372 -76 731 -265 1009 -532 34 -32 64 -70 67 -83 3 -13 14 -85 26 -158
37 -232 117 -516 195 -696 7 -16 21 -50 31 -75 10 -25 30 -68 45 -97 14 -29
24 -55 21 -58 -11 -10 -175 -5 -265 10 -185 30 -341 82 -495 167 -234 128
-463 365 -585 603 -120 235 -167 451 -167 767 0 194 -12 179 118 152z m3962
-166 c-1 -304 -39 -490 -145 -713 -229 -479 -709 -797 -1237 -822 -71 -3 -128
-3 -128 -1 0 3 23 57 51 119 140 312 218 590 264 941 5 42 13 53 93 130 98 94
203 175 322 249 79 48 255 139 295 152 11 3 63 21 115 40 52 18 136 43 185 55
120 28 126 29 158 31 l27 1 0 -182z m1558 -2128 c322 -35 575 -218 712 -514
21 -44 40 -92 43 -106 43 -212 46 -256 23 -385 -20 -108 -49 -196 -92 -274
-107 -195 -286 -347 -488 -415 -142 -48 19 -46 -3488 -46 l-3287 0 -56 21
c-107 40 -185 153 -185 269 0 107 72 218 170 264 l45 21 3295 5 3295 5 58 29
c185 90 217 338 61 475 -89 78 244 71 -3435 71 -2843 0 -3307 -2 -3366 -15
-336 -71 -588 -307 -679 -635 -29 -101 -27 -349 4 -453 91 -317 346 -554 668
-622 60 -13 553 -15 3636 -15 2619 0 3581 -3 3620 -11 107 -23 191 -100 223
-204 19 -63 19 -97 0 -160 -34 -111 -110 -180 -227 -205 -39 -8 -986 -10
-3648 -8 -3349 4 -3601 5 -3680 21 -312 63 -558 193 -776 411 -204 205 -320
410 -389 686 -97 392 -21 806 213 1160 74 112 270 308 383 382 226 149 438
225 694 247 142 13 6537 13 6653 1z"/>
<path d="M10569 24827 c-140 -72 -198 -229 -135 -370 57 -131 211 -206 337
-166 133 41 218 154 219 286 0 65 -35 144 -87 197 -54 55 -129 86 -207 86 -53
0 -75 -6 -127 -33z"/>
<path d="M17052 23473 c-230 -48 -426 -198 -531 -403 -69 -135 -86 -206 -86
-365 1 -150 20 -227 86 -356 138 -266 420 -428 722 -415 219 10 415 107 559
276 103 120 155 242 179 412 39 284 -118 606 -368 753 -67 39 -106 55 -228 96
-54 17 -255 19 -333 2z"/>
<path d="M32299 21571 c-158 -29 -337 -103 -439 -180 -108 -81 -181 -192 -216
-331 -23 -89 -15 -318 15 -447 20 -87 256 -852 266 -862 4 -3 1974 613 1996
625 10 6 -95 327 -108 331 -8 3 -499 -147 -568 -173 -7 -3 -34 69 -75 198 -74
235 -105 318 -156 419 -55 112 -116 198 -186 265 -117 112 -216 154 -378 159
-58 2 -126 0 -151 -4z m259 -391 c73 -31 135 -102 187 -213 43 -91 183 -522
173 -532 -5 -5 -792 -255 -794 -252 -11 15 -137 448 -150 513 -33 177 -6 302
81 383 124 114 361 162 503 101z"/>
<path d="M30335 20958 c-242 -77 -441 -141 -442 -142 -3 -2 1484 -4706 1489
-4711 3 -3 888 273 895 279 2 2 -565 1797 -1443 4574 -24 78 -48 141 -52 141
-4 -1 -205 -64 -447 -141z"/>
<path d="M26875 19936 l-420 -133 -8 -34 c-8 -38 -598 -5421 -594 -5425 5 -5
850 265 857 273 4 4 37 284 73 622 37 338 68 615 69 616 2 1 542 172 1200 379
l1197 378 34 -39 c19 -21 204 -231 412 -468 208 -236 380 -429 384 -429 37 7
851 269 851 274 0 12 -3609 4115 -3622 4117 -7 1 -202 -58 -433 -131z m1080
-1849 c400 -456 725 -830 723 -831 -7 -7 -1730 -548 -1732 -544 -2 2 218 2019
239 2187 7 52 7 53 25 35 9 -11 345 -392 745 -847z"/>
<path d="M33085 19508 c-539 -171 -982 -312 -983 -314 -4 -3 96 -326 103 -333
4 -3 1975 614 1996 625 4 2 -17 77 -45 166 -43 134 -55 163 -72 165 -10 0
-460 -139 -999 -309z"/>
<path d="M32302 18548 c3 -7 29 -91 58 -186 45 -143 58 -173 75 -177 11 -2
378 -34 815 -70 437 -36 807 -69 821 -73 24 -6 -25 -50 -613 -542 -352 -294
-642 -540 -645 -546 -4 -10 102 -361 112 -372 3 -4 1682 1373 1723 1413 l24
22 -58 186 -58 186 -41 6 c-57 7 -2144 165 -2184 165 -22 0 -32 -4 -29 -12z"/>
<path d="M21207 18145 c-213 -67 -391 -125 -394 -129 -3 -3 247 -805 555
-1783 309 -977 559 -1779 557 -1781 -2 -2 -881 602 -1954 1342 l-1950 1345
-403 -127 c-222 -71 -402 -133 -402 -138 2 -11 1506 -4778 1509 -4781 5 -7
805 252 805 259 0 7 -1038 3305 -1085 3446 -11 33 -11 41 -1 35 7 -5 865 -597
1906 -1317 1042 -720 1898 -1309 1904 -1309 14 0 847 263 862 271 13 8 -1495
4792 -1511 4791 -5 0 -185 -56 -398 -124z"/>
<path d="M34990 16514 l-1385 -245 -14875 -4720 -14875 -4721 -1017 -516
c-559 -284 -1016 -517 -1015 -519 1 -1 895 282 1987 628 1092 346 1987 629
1990 629 3 0 28 -37 55 -82 81 -134 352 -540 475 -713 708 -995 1525 -1893
2443 -2681 2952 -2538 6772 -3805 10672 -3539 787 54 1693 188 2320 343 l110
27 -185 6 c-211 8 -361 31 -555 86 -225 63 -436 156 -635 279 -99 61 -97 60
-260 39 -278 -37 -651 -71 -1065 -97 -265 -17 -1225 -17 -1490 0 -453 29 -801
62 -1145 108 -4033 539 -7627 2792 -9887 6198 -80 120 -146 225 -147 234 -1
13 2632 851 12999 4137 l13000 4122 9 -81 c14 -130 12 -1204 -2 -1426 -40
-621 -90 -1076 -173 -1575 -336 -2018 -1120 -3953 -2282 -5635 -443 -640 -911
-1211 -1467 -1791 l-188 -196 111 -37 c147 -50 334 -141 454 -223 l97 -66 74
79 c256 276 405 441 540 599 2090 2435 3316 5444 3522 8640 38 586 39 1237 4
1820 l-6 111 1588 503 c874 277 1598 507 1609 512 l20 8 -20 -1 c-11 0 -643
-110 -1405 -244z"/>
<path d="M12217 15360 c-493 -48 -1003 -228 -1395 -492 -197 -133 -438 -362
-580 -550 -283 -377 -460 -798 -517 -1231 -20 -153 -20 -459 0 -614 51 -403
199 -827 400 -1153 393 -633 1075 -1064 1855 -1171 141 -20 497 -17 645 5 655
95 1221 364 1636 776 420 418 696 999 749 1580 58 618 -158 1358 -542 1862
-193 254 -454 483 -729 641 -295 169 -615 281 -949 332 -124 18 -449 27 -573
15z m373 -801 c283 -38 608 -180 855 -374 92 -72 250 -232 316 -320 180 -239
304 -535 366 -875 24 -134 24 -438 -1 -575 -79 -439 -321 -852 -651 -1110
-395 -309 -962 -445 -1439 -346 -365 77 -759 307 -997 584 -232 271 -390 627
-445 1007 -20 138 -14 440 10 560 75 366 248 700 491 946 167 168 349 288 574
379 310 124 616 165 921 124z"/>
<path d="M4445 12857 c-1045 -330 -1901 -601 -1903 -603 -3 -2 226 -736 231
-740 1 -1 605 189 1342 422 737 233 1346 424 1354 424 8 0 11 -7 8 -17 -2 -10
-387 -975 -856 -2146 -468 -1170 -851 -2134 -851 -2143 0 -13 187 -615 193
-620 3 -3 3948 1243 3952 1248 2 2 -49 170 -114 373 -87 275 -121 369 -132
368 -7 -2 -641 -201 -1408 -443 -767 -242 -1398 -437 -1402 -433 -4 4 375 962
842 2128 467 1166 852 2130 855 2141 7 27 -186 644 -201 643 -5 -1 -865 -271
-1910 -602z"/>
<path d="M21050 11041 c0 -4 -19 -11 -42 -14 -55 -8 -157 -41 -228 -73 -69
-32 -202 -121 -255 -171 -64 -60 -156 -173 -150 -183 9 -15 2715 -13 2715 1 0
17 -83 119 -136 169 -121 113 -304 214 -444 245 -41 9 -83 21 -92 26 -23 12
-1368 12 -1368 0z"/>
<path d="M29398 11043 c-1 -5 -15 -15 -30 -23 -14 -8 -217 -181 -449 -385
-408 -356 -931 -814 -1938 -1695 -261 -228 -493 -431 -515 -450 -23 -19 -151
-131 -286 -249 -269 -235 -269 -235 -617 -540 -134 -117 -243 -218 -243 -224
0 -7 132 -165 293 -353 493 -574 537 -625 636 -741 53 -62 101 -113 106 -112
6 0 83 102 172 227 90 125 210 292 268 372 58 80 183 252 278 383 192 267 286
396 436 602 56 77 133 185 173 240 39 55 88 123 108 150 21 28 133 183 250
345 117 162 241 333 275 380 84 115 485 669 623 860 61 85 234 324 383 530
150 206 283 393 296 415 71 123 -18 275 -161 275 -30 0 -56 -3 -58 -7z"/>
<path d="M20169 10205 c-176 -48 -349 -221 -384 -382 -3 -18 -11 -33 -16 -33
-5 0 -9 -108 -9 -260 0 -145 4 -260 9 -260 5 0 12 -15 15 -34 13 -67 76 -174
142 -242 50 -50 86 -76 152 -107 l87 -42 1535 -3 c1072 -2 1551 1 1587 8 130
27 283 148 350 275 57 110 65 160 61 424 -3 217 -5 241 -27 301 -63 177 -204
308 -384 356 -74 20 -3047 19 -3118 -1z"/>
<path d="M23729 8674 c-7 -9 -32 -29 -56 -45 l-43 -30 0 -1040 0 -1040 526
-757 c290 -416 544 -780 565 -808 35 -48 41 -52 91 -58 29 -4 105 -15 168 -25
63 -11 196 -32 295 -47 l180 -28 50 -50 c83 -84 867 -988 872 -1005 2 -9 -11
-48 -30 -86 -129 -264 -192 -593 -168 -872 22 -238 77 -445 174 -643 233 -478
691 -833 1207 -934 47 -9 107 -21 133 -26 65 -13 359 -13 433 0 245 44 379 85
549 170 440 218 762 602 899 1070 23 81 32 119 56 254 5 33 10 136 10 230 0
159 -5 209 -39 384 -10 52 -62 216 -81 257 -5 11 -24 54 -43 95 -130 287 -358
546 -638 726 -82 53 -261 144 -282 144 -7 0 -17 4 -22 8 -6 5 -48 21 -95 35
-222 69 -465 98 -667 78 -135 -13 -232 -30 -323 -57 -115 -34 -101 -41 -236
118 -114 135 -354 414 -933 1088 -140 162 -360 419 -490 570 -130 151 -376
437 -546 635 -566 658 -747 869 -1108 1289 -228 265 -365 416 -376 416 -10 0
-24 -7 -32 -16z m1178 -2176 c39 -14 74 -37 108 -72 75 -75 90 -113 90 -222 0
-81 -3 -97 -30 -149 -54 -106 -168 -175 -289 -175 -103 0 -226 78 -276 176
-21 42 -25 63 -25 144 0 80 4 102 24 142 75 146 246 213 398 156z m3164 -2673
c381 -73 662 -341 755 -722 25 -103 23 -303 -5 -418 -86 -349 -372 -627 -723
-700 -106 -23 -300 -20 -406 6 -316 77 -567 308 -672 620 -201 596 246 1220
880 1228 52 0 129 -6 171 -14z"/>
<path d="M20833 8462 l-633 -2 0 -500 c0 -275 3 -500 8 -500 4 0 107 78 229
173 121 94 283 220 360 278 76 59 221 171 323 250 102 79 226 174 275 212 83
64 105 89 80 91 -5 1 -295 0 -642 -2z"/>
<path d="M21730 8170 c-206 -159 -476 -367 -599 -462 -123 -95 -242 -188 -265
-206 -48 -37 -478 -369 -590 -455 l-76 -58 0 -555 c0 -304 2 -554 4 -554 4 0
390 296 698 534 64 50 217 169 340 263 334 258 482 373 818 633 168 129 355
274 415 320 408 314 781 604 788 614 4 6 6 56 5 111 l-3 100 -580 2 -580 3
-375 -290z"/>
<path d="M23059 7620 c-107 -83 -214 -166 -239 -185 -25 -19 -121 -93 -214
-165 -158 -123 -621 -480 -732 -566 -98 -75 -559 -432 -1102 -853 -301 -232
-553 -425 -559 -428 -10 -4 -13 -126 -13 -564 0 -307 2 -559 5 -559 3 0 99 73
214 163 115 89 332 257 482 372 521 403 775 599 989 765 118 92 238 184 266
206 28 21 87 66 130 100 43 33 264 203 489 377 226 174 429 333 453 352 l42
36 0 544 c0 310 -4 546 -9 549 -5 3 -96 -62 -202 -144z"/>
<path d="M23062 6042 c-212 -164 -509 -394 -927 -716 -154 -119 -361 -279
-460 -355 -172 -133 -690 -533 -785 -606 -25 -19 -160 -124 -300 -232 -141
-109 -286 -220 -322 -248 -64 -48 -67 -52 -68 -92 l0 -43 669 0 669 0 49 37
c26 20 197 151 378 292 463 358 588 454 940 725 171 132 322 250 338 264 l27
26 0 542 c0 310 -4 545 -9 548 -5 3 -94 -60 -199 -142z"/>
<path d="M23630 5146 c0 -457 4 -707 10 -711 10 -6 563 534 581 566 6 13 -58
112 -279 430 -158 227 -293 414 -300 417 -9 3 -12 -150 -12 -702z"/>
<path d="M23060 4464 c-102 -80 -228 -177 -280 -217 -349 -267 -620 -480 -620
-488 0 -5 226 -8 553 -7 l552 3 0 424 c0 275 -4 425 -10 427 -5 1 -93 -62
-195 -142z"/>
<path d="M20148 3360 c-154 -47 -309 -199 -354 -350 -10 -33 -21 -60 -26 -60
-4 0 -8 -117 -8 -260 0 -167 4 -260 10 -260 6 0 10 -7 10 -16 0 -36 63 -163
110 -221 58 -72 160 -143 247 -172 62 -21 66 -21 1595 -21 l1533 0 68 24 c174
62 304 205 351 386 15 55 17 103 14 300 -3 216 -5 240 -27 300 -50 141 -157
260 -291 324 l-65 31 -1570 2 c-863 1 -1582 -2 -1597 -7z"/>
<path d="M25810 2776 c-163 -110 -774 -447 -1127 -621 -201 -100 -299 -145
-610 -285 l-62 -28 -66 -129 c-36 -70 -80 -151 -98 -178 -145 -227 -337 -440
-556 -615 -58 -47 -111 -83 -246 -169 -68 -44 -47 -38 261 70 896 312 1752
705 2557 1172 117 68 157 96 153 107 -89 247 -127 400 -146 589 -5 57 -10 105
-10 107 0 9 -18 2 -50 -20z"/>
<path d="M20370 1614 c0 -13 114 -146 159 -186 61 -54 193 -140 262 -171 57
-25 154 -55 242 -76 67 -15 1338 -15 1404 0 212 50 363 126 492 245 69 63 161
169 161 185 0 5 -510 9 -1360 9 -748 0 -1360 -3 -1360 -6z"/>
</g>
</svg>
