<svg width="587" height="989" xmlns="http://www.w3.org/2000/svg" xml:space="preserve" version="1.1">

 <g>
  <title>Layer 1</title>
  <g id="svg_1">
   <path id="svg_2" fill="#EF233C" d="m580.66107,434.19869c-4.06744,-7.4032 -11.07391,-11.88785 -19.66156,-10.97391c-4.99298,0.53134 -9.72595,2.74637 -13.9389,5.37555c-2.14911,1.34119 -7.65546,7.45584 -10.23291,6.62228c3.10669,-33.96087 13.51104,-66.74697 15.70581,-100.86944c2.12304,-33.0065 -3.75251,-64.11646 -22.388,-91.83116c19.57293,-34.04509 2.27581,-71.91954 -23.68457,-97.01587c-28.76508,-27.80763 -68.36817,-41.62425 -102.82703,-60.72408c-0.16736,0.26847 -0.33472,0.53694 -0.50208,0.80548c3.25519,3.97995 6.51038,7.95989 9.76557,11.93991c-30.9455,-12.76658 -62.18396,-25.68931 -92.13019,-40.68284c-13.02905,-6.52341 -26.8114,-14.40319 -36.1438,-25.87609c-3.47369,-4.27044 -6.2102,-9.15641 -7.30444,-14.59584c-0.54267,-2.6972 0.86688,-16.42677 -0.36923,-16.37253c-12.09259,13.16819 -25.80866,30.76395 -26.7696,49.42641c-0.94415,18.33606 14.41782,28.5416 27.47437,38.35391c-18.73218,-4.83718 -38.63965,-10.18057 -54.79373,-21.2745c-4.6507,-3.19392 -8.8758,-7.03243 -10.1351,-12.75059c-1.20551,-5.4739 3.45336,-13.92313 1.63662,-18.28107c-16.29898,14.1744 -40.24875,41.12533 -19.65118,61.4198c-8.62384,0 -20.04901,-7.77711 -27.77677,-11.56357c-9.95126,-4.87595 -19.88443,-10.22848 -28.6961,-16.99787c-7.80594,-5.99666 -15.94791,-13.96092 -18.38895,-23.84331c-2.30646,-9.33738 2.01734,-17.28655 5.81345,-25.50239c-25.67078,18.62452 -49.16709,43.47403 -57.95242,74.71118c-8.5058,30.24331 -1.88517,62.91338 19.087,86.48362c-12.29001,17.65919 -24.06503,34.51275 -32.48361,54.49025c-7.97498,18.92453 -13.3739,38.85275 -16.69147,59.10217c-3.86641,23.59927 -4.49599,46.86304 -1.21907,70.58151c3.25971,23.59345 9.4214,46.70945 11.53572,70.47144c-13.24399,-8.77707 -32.1627,-19.38831 -42.24167,-0.4686c-10.43071,19.58002 -4.5291,47.40628 1.77774,67.35211c7.24765,22.92096 20.7657,43.6919 26.40857,67.08814c2.00156,8.2987 0.66277,19.13861 6.28874,26.1156c5.27506,6.54199 14.15163,7.15179 21.69857,4.76501c2.00277,18.60657 -0.35544,37.37732 -6.13153,55.13849c-5.63669,17.33246 -11.99413,33.70819 -14.16941,51.9773c-4.0731,34.208 2.56473,71.79333 26.19587,98.02276c-2.15757,-8.52667 -4.43021,-16.97955 -2.47815,-25.99212c4.94925,26.13098 16.06823,50.71527 31.18289,72.5158c7.36789,10.62708 15.61059,20.76294 24.82318,29.85138c5.87649,5.79731 12.70541,12.53272 20.65091,15.38721c-4.49576,-11.74908 -8.99704,-23.49817 -13.49823,-35.24731c21.39065,27.24029 44.65826,52.45214 68.6354,77.15405c-4.40933,-13.76721 -13.76776,-25.90637 -20.80117,-38.4245c-7.12015,-12.67236 -10.60398,-26.58899 -9.20432,-41.14575c2.57758,-26.80792 20.86386,-53.71137 42.70441,-68.85102c-4.62665,9.48749 -11.84976,17.75031 -16.74133,27.19507c-4.41285,8.52033 -8.02076,17.49634 -10.46549,26.7818c-4.80133,18.23627 -5.2316,37.58759 0.12787,55.75031c11.47055,38.87304 43.94873,63.30194 77.18155,83.17987c-2.7421,-15.81372 -5.76065,-30.77289 2.95178,-45.33325c6.75861,19.18103 18.72687,34.58081 29.9903,51.37481c11.85699,-16.74652 23.69403,-32.41699 30.48394,-52.09033c8.56031,15.51154 5.88526,30.93195 3.33106,46.66016c34.03992,-21.193 67.06811,-45.4065 77.6676,-86.3935c4.97492,-19.23755 3.29816,-39.17822 -2.68835,-57.98755c-3.05225,-9.59027 -7.19837,-18.81121 -12.20276,-27.53796c-2.40497,-4.19391 -5.00617,-8.26813 -7.77814,-12.2287c-1.92401,-2.74902 -5.79706,-6.0827 -5.48285,-9.781c20.33997,17.44452 38.79199,40.02203 42.55805,67.41821c1.86529,13.56897 -0.64362,27.15167 -6.70173,39.39856c-3.65374,7.38617 -8.23474,14.36554 -12.26379,21.55487c-3.06964,5.47729 -9.36682,13.06451 -8.87115,19.71057c23.22644,-24.38129 45.62591,-48.74829 65.04693,-75.80853c-3.07452,12.21655 -7.48523,23.81653 -11.74402,35.57965c40.50006,-30.02625 65.91925,-69.79309 76.74457,-119.07099c1.72693,9.18299 -1.0014,17.66401 -3.12329,26.82245c12.71771,-9.41443 19.82611,-30.52856 23.48389,-45.2019c4.15893,-16.68408 5.88196,-34.80841 4.46795,-51.95239c-1.60839,-19.50006 -8.74188,-36.57465 -15.05279,-54.81025c-5.95392,-17.20428 -8.04035,-35.5205 -6.41742,-53.64105c7.63873,2.57032 16.55017,1.93653 21.87744,-4.73199c5.98157,-7.48761 4.68958,-19.35425 7.03735,-28.25092c5.88337,-22.29388 18.34858,-42.25342 25.34961,-64.2117c6.4621,-20.26785 13.04682,-48.36139 2.11359,-68.26132zm-518.76343,151.11108c-1.09131,3.96039 -4.612,7.21979 -9.03128,6.54737c-5.36255,-0.81592 -7.94502,-7.32221 -8.94504,-11.99262c-1.31488,-6.14117 -1.20181,-12.47919 -2.74005,-18.63794c-1.71754,-6.87652 -4.36194,-13.41833 -7.31131,-19.8446c-6.11093,-13.31476 -12.12977,-26.62799 -16.56585,-40.61795c-4.19268,-13.22205 -7.55973,-27.25086 -7.4836,-41.19654c0.04541,-8.30298 0.63966,-23.64303 10.42384,-26.95297c9.68369,-3.27585 22.68291,6.67835 29.00702,12.99658c4.53024,4.52591 8.28198,10.04282 10.67505,15.99219c3.3432,8.31171 0.94403,16.0668 1.31006,24.66968c-5.99344,-9.3895 -12.91806,-18.15766 -20.62314,-26.20017c-4.35553,-4.54629 -13.28368,-15.49637 -20.73703,-12.95614c-7.76648,2.64697 -5.38376,17.7243 -4.63924,23.70013c1.251,10.04117 3.46677,21.57269 8.96814,30.23554c0.44045,-8.74537 -1.02568,-19.8433 4.89344,-27.23584c4.44801,-5.55515 13.97593,-1.93262 15.5365,4.81402c-21.72204,8.81665 -5.40217,45.80707 3.35595,58.5343c-0.66313,-5.80096 -7.315,-28.85223 1.94136,-30.18493c14.20465,-2.0452 12.1113,25.67779 12.10971,33.16125c-0.00164,7.47748 -0.00692,14.95502 -0.00467,22.43262c0.00202,6.82519 1.66217,16.19592 -0.13986,22.73602zm439.31574,-356.45427c9.67321,-21.81891 7.89184,-43.46226 -2.97675,-64.43254c21.21027,20.80387 22.89148,47.90552 2.97675,64.43254zm-19.75379,-51.79336c9.31952,29.96963 -21.29016,56.01265 -42.83893,70.9723c29.2342,-45.28676 25.32276,-87.07516 -11.95983,-125.89751c22.93872,12.27386 46.67663,28.80614 54.79876,54.92521zm-62.92029,-2.87364c7.29194,14.40748 10.18232,29.68615 1.80579,44.28932c-10.18164,17.75017 -28.79529,31.09985 -45.29297,42.53404c8.59619,-13.95284 18.17029,-27.57242 21.73023,-43.84908c3.07818,-14.07377 1.58813,-28.57585 -3.43671,-42.02502c-10.86975,-29.09288 -34.13794,-49.73351 -58.94104,-67.03145c33.74146,13.22907 67.18042,32.58356 84.1347,66.08219zm-114.51568,-11.33848c13.40527,15.44266 22.08789,34.24868 21.54993,54.99378c-0.64026,24.68333 -14.02509,47.27814 -29.76938,65.48791c3.82974,-21.92599 10.37759,-41.97251 7.29403,-64.55903c-2.43747,-17.85373 -9.652,-34.76251 -20.66824,-49.00458c-11.0307,-14.26077 -25.45139,-25.68735 -41.33481,-34.11531c-10.99072,-5.83183 -22.68329,-10.20644 -34.63867,-13.60313c-11.32407,-3.21732 -23.9465,-4.07167 -34.88556,-8.29248c47.78702,0.3012 99.84152,11.52563 132.4527,49.09284zm-130.68994,-26.76144c23.74551,3.35324 47.76443,8.34769 67.97864,21.97134c39.59207,26.6836 57.45162,83.11121 19.71582,119.63556c5.97238,-43.20269 -6.56232,-86.71429 -43.34852,-112.512c-17.87878,-12.53817 -38.306,-19.38323 -59.44064,-24.14112c-11.67288,-2.62787 -23.64123,-4.72967 -34.73883,-9.35171c-7.75714,-3.23081 -20.99237,-9.3536 -23.49301,-18.24494c21.08072,16.66136 47.68451,19.02169 73.32654,22.64287zm-102.34156,-16.81314c12.02167,23.79926 34.56482,31.61317 57.77842,38.30005c15.81121,4.55467 31.56036,9.24075 45.57635,18.19545c34.56616,22.08404 51.08804,58.23356 46.6034,102.70973c-2.46586,-5.23205 -2.67014,-10.26068 -3.73676,-15.03577c-11.17178,-50.01593 -41.31763,-82.87397 -89.55679,-99.60278c-13.37146,-4.63711 -26.82074,-9.27212 -38.30011,-17.99034c-8.99433,-6.83089 -15.81629,-15.18642 -18.36451,-26.57634zm80.8292,671.10507c-2.08399,16.44049 -11.36624,30.67444 -14.61222,46.80286c-3.31875,-14.34601 1.85575,-29.43488 4.11173,-43.57025c2.48593,-15.57581 2.56021,-30.37506 -1.26978,-45.76215c10.27247,11.62427 13.69111,27.37592 11.77027,42.52954zm66.54001,50.4126c-7.16037,40.2215 -6.99909,44.80926 3.22445,79.81763c-15.68689,-22.85828 -16.86078,-61.11908 -3.22445,-79.81763zm34.16629,112.50342c-35.39188,-41.27631 -39.8321,-95.65656 13.97012,-140.88971c-29.51068,44.10113 -32.47101,90.91131 -13.97012,140.88971zm81.46261,-0.28644c17.31153,-49.81067 15.07996,-97.30383 -16.7608,-142.39166c53.94482,43.05682 55.06244,98.47998 16.7608,142.39166zm32.15253,-35.79303c8.763,-25.50238 10.25079,-51.12274 0.82684,-78.15393c14.4516,21.10687 13.90161,56.73132 -0.82684,78.15393zm-11.23413,-197.18573c-16.99286,-4.02625 -33.92389,-3.70728 -50.51907,1.80853c-7.36142,2.44684 -14.19553,2.47241 -21.64081,0.09076c-28.34345,-9.06695 -55.19767,-4.14667 -80.89777,9.67273c-2.26565,1.21832 -4.50345,2.48834 -7.05936,3.20752c19.48618,-21.93426 44.21531,-36.28924 69.79132,-49.479c18.99949,8.11194 37.81305,7.89654 57.09693,0.20215c25.52252,12.83313 50.02612,27.56994 69.84296,48.97644c-11.77009,-6.31733 -23.78272,-11.43885 -36.6142,-14.47913zm-76.90366,-44.44788c5.57822,-3.69714 10.30323,-6.82867 15.21802,-10.08606c5.78778,2.23652 10.29605,6.44587 16.2858,9.90949c-10.74863,3.70978 -20.58438,3.65558 -31.50382,0.17657zm170.88413,161.04566c-3.16089,-17.7525 -15.06519,-32.78821 -15.4184,-51.43469c-0.2699,-14.24598 3.14197,-27.07544 12.40637,-38.20099c-7.58661,23.19238 -2.6289,45.93066 2.10456,68.66772c1.43097,6.87354 2.15484,13.78034 0.90747,20.96796zm59.28766,-316.6192c-2.15985,14.11047 -0.06952,28.37268 -2.54053,42.51873c-2.40405,13.763 -7.45648,26.96924 -14.69403,38.91138c-8.20673,13.54114 -17.9668,25.1405 -24.09027,39.96893c-6.45417,15.62903 -9.45203,32.4151 -16.4856,47.80817c-23.59192,-38.68646 -59.53491,-60.10864 -100.7204,-75.08014c2.15088,-6.86987 4.30329,-13.38647 0.37897,-20.02911c-3.09351,-5.23627 -8.69195,-8.76489 -14.22882,-10.88812c4.6438,7.37689 11.39508,22.5426 -1.51172,26.32385c-5.71362,1.67395 -12.43274,0.06915 -18.40454,1.25256c-7.01849,1.39075 -13.15561,5.84607 -20.16483,6.75433c-7.21624,0.93506 -12.58145,-2.3966 -18.97406,-4.99713c-6.34002,-2.57904 -12.06808,-2.40496 -18.72991,-2.54681c-17.01069,-0.36237 -15.55564,-15.4834 -8.13987,-26.57526c-16.6622,5.91138 -19.37335,17.96399 -12.8666,30.77137c-40.88562,14.4187 -76.3136,36.24835 -99.9629,74.98584c-7.40652,-14.06427 -9.83819,-30.01325 -15.78451,-44.66883c-5.63669,-13.89245 -13.59003,-25.77221 -22.38232,-37.79944c-8.66098,-11.84753 -15.04612,-25.27093 -17.98816,-39.68634c-3.03696,-14.88006 -1.0351,-30.07501 -3.05997,-45.07177c-2.28058,-16.89145 -10.0546,-31.28717 -8.43671,-48.70438c1.61173,-17.35141 4.97455,-34.67108 7.57648,-51.89752c2.74539,-18.17615 5.47586,-36.35501 8.021,-54.56049c2.29852,-16.44147 0.57009,-33.03689 5.51516,-49.06521c9.71537,-31.4903 28.31665,-58.10874 54.57645,-77.9571c15.96634,20.65149 39.733,37.26419 64.57739,45.29129c13.79865,4.45835 26.7287,5.20771 41.00839,4.02024c7.14039,-0.59372 11.85791,2.80453 18.08481,6.10165c6.72565,3.56122 13.4783,7.07099 20.21314,10.61447c56.3359,-17.32162 112.79837,-33.4711 171.52859,-41.50778c18.98822,18.48956 32.39026,42.10175 36.62842,68.40494c5.17017,32.08691 9.13342,64.57254 13.22394,96.82019c2.04278,16.10483 5.55969,32.42288 6.49725,48.62494c0.85346,14.74829 -6.48126,27.60138 -8.66424,41.86255zm66.45288,-40.10007c-2.74549,14.19705 -7.29743,28.08469 -12.91126,41.39346c-5.47156,12.97156 -12.40845,25.20368 -16.03345,38.9029c-1.88232,7.11352 -1.84796,35.65167 -15.2611,31.34265c-5.81922,-1.86939 -5.69379,-8.38361 -5.69861,-13.28131c-0.00788,-7.92273 -0.12531,-15.84467 -0.17047,-23.76703c-0.05164,-9.05323 -0.02161,-18.10932 0.3576,-27.15607c0.27313,-6.51691 1.11243,-15.97894 7.53937,-19.78754c14.93695,-8.85183 5.47803,26.06531 7.2146,30.89405c7.43683,-13.89026 24.46045,-51.65412 1.33734,-59.65805c2.99847,-7.80262 12.2898,-11.46573 17.19989,-3.42054c4.92737,8.07343 3.89893,19.19971 3.57886,28.19599c5.0058,-9.77408 7.94305,-20.15055 9.18835,-31.03665c0.78217,-6.8378 3.25666,-21.54251 -5.13739,-25.05091c-8.5578,-3.57684 -18.74707,10.00965 -23.45947,15.42273c-6.55402,7.52851 -11.83472,15.82495 -16.74243,24.4827c-1.51642,-20.81226 3.41821,-39.37958 22.4093,-50.24268c7.58044,-4.336 17.90985,-8.69204 23.81354,0.30414c7.50055,11.42969 5.2099,29.87277 2.77533,42.46216z"/>
   <path id="svg_3" fill="#EF233C" d="m229.8883,437.99828c-10.65536,-5.048 -21.31378,-10.09467 -31.80252,-15.48325c-9.57052,-4.9169 -19.01336,-8.8822 -29.99762,-7.20126c-19.67611,3.01102 -34.06482,20.62305 -50.37158,30.52686c28.36405,2.97848 57.10553,7.53399 84.20093,16.71637c-32.46619,2.617 -52.93948,11.88595 -60.42423,27.05532c10.85086,-5.70556 21.80774,-10.59484 33.8863,-14.06713c-3.42002,12.41015 5.17321,25.28305 18.95739,23.45693c14.06745,-1.86364 17.99933,-14.98355 14.78308,-26.98992c9.54496,2.79345 18.23883,6.11901 26.60605,12.27618c-6.25284,3.9126 -12.14117,7.93802 -17.97534,12.44839c12.92764,-2.79711 26.66248,-3.53631 37.79736,4.81824c9.29364,6.97302 12.99894,18.0072 14.4332,29.12872c3.55609,-19.43286 3.60098,-42.40606 -4.32556,-60.86734c-7.06775,-16.4613 -20.21481,-24.44992 -35.76746,-31.81811zm-45.03103,39.759c-0.68442,-4.98797 6.46267,-5.97525 7.37246,-0.73639c0.14792,4.74408 -6.72299,5.4693 -7.37246,0.73639z"/>
   <path id="svg_4" fill="#EF233C" d="m359.88043,436.39659c-16.64325,7.37595 -31.24725,14.49567 -39.15057,31.95377c-8.62744,19.05765 -8.08478,41.71295 -5.81653,62.05054c1.40753,-11.19623 5.14117,-22.13849 14.52301,-29.09934c11.83124,-8.77826 26.22314,-7.41818 39.52472,-3.27108c-5.34723,-7.31998 -12.76697,-9.44849 -18.13043,-14.88703c7.73577,-5.13061 16.03485,-8.18399 25.17572,-11.01681c-4.45704,11.96969 0.06823,27.15036 15.2091,26.97921c13.13623,-0.14846 19.60797,-12.41522 17.2666,-24.07397c12.40662,3.71872 23.61322,8.92053 36.45978,14.77325c-16.85071,-19.98162 -36.22259,-29.61609 -61.03924,-27.25689c26.60724,-8.97501 53.8507,-13.85419 82.45605,-17.04081c-14.87158,-11.24749 -31.01202,-28.17211 -50.45581,-29.99249c-20.16345,-1.88778 -38.42792,13.08411 -56.0224,20.88165zm33.39801,38.25541c3.35083,4.61001 -2.27899,6.62191 -5.85907,5.25921c-1.84473,-4.15912 2.11859,-10.4053 5.85907,-5.25921z"/>
  </g>
 </g>
</svg>