<svg width="598" height="977" xmlns="http://www.w3.org/2000/svg" xml:space="preserve" version="1.1">

 <g>
  <title>Layer 1</title>
  <g id="svg_1" fill="#d82246">
   <path id="svg_2" d="m31.62294,743.7136c18.82845,-68.76172 36.31447,-136.89734 39.36553,-208.50898c0.27224,-6.38983 0.62075,-11.13604 -3.42884,-16.32287c-5.06686,-6.48981 -10.73636,-12.31079 -15.41508,-19.1492c-8.38803,-12.26001 -14.83592,-25.87021 -18.33672,-40.33759c-1.84489,-7.62423 -2.87982,-15.43036 -2.61863,-23.2839c0.14288,-4.29672 0.86752,-8.33264 1.53549,-12.55945c0.84277,-5.33279 -0.66561,-9.00809 -2.38677,-14.03482c-5.53599,-16.16788 -8.84742,-33.02445 -10.3809,-50.03c-3.59992,-39.92111 2.08429,-79.46704 10.76675,-118.3607c-12.19949,-18.5201 -22.49196,-38.03795 -30.72377,-59.15413c19.01663,-19.46999 42.5771,-26.22441 70.76148,-25.77908c-10.17087,-8.69599 -20.86438,-13.2719 -33.04818,-17.21898c25.57033,-15.91426 51.55272,-28.53727 79.6079,-39.69942c-3.65958,13.03554 -6.60577,25.3813 -7.36728,38.82088c6.95618,-6.37998 10.61639,-18.71399 15.75021,-26.70485c5.43903,-8.46589 11.57068,-16.49968 18.52048,-23.78423c14.20972,-14.89406 31.14777,-25.95257 52.33603,-26.16269c-11.67789,11.91728 -21.37799,23.88839 -28.56586,38.30667c5.21958,-0.5236 10.86533,-5.90594 15.45713,-8.39791c6.27743,-3.40671 12.74899,-6.45959 19.34787,-9.1905c13.13464,-5.43574 26.78747,-9.55414 40.64083,-12.70475c29.15918,-6.63155 58.96494,-8.57133 88.69184,-10.93212c51.22192,-4.06787 113.71228,-8.8579 142.23498,-58.52498c5.05274,40.45193 -19.30847,77.82019 -48.8891,102.81566c-16.47723,13.92319 -34.78503,25.68192 -53.76715,35.87447c-9.63128,5.17158 -19.4757,9.93669 -29.45532,14.39685c-8.74756,3.90947 -20.21704,6.54251 -27.8576,12.25215c21.99542,-2.66077 44.76568,-12.03163 64.93994,-20.85368c20.62658,-9.01985 40.30017,-20.24524 58.16607,-33.97206c33.66443,-25.86516 59.72919,-60.17031 70.10511,-101.78222c28.96173,62.83903 28.92401,136.91543 -13.35572,193.6243c10.4914,-6.35349 17.96204,-19.05544 23.94788,-29.34319c7.83197,-13.46063 13.77588,-27.92784 17.8031,-42.97041c8.6319,-32.24269 8.60345,-67.89588 1.61316,-100.44079c50.03302,57.49814 67.66016,159.98462 5.44043,232.3883c13.37085,30.06177 21.56341,61.62467 25.13922,94.29752c1.65143,15.08948 4.9729,32.01001 3.57117,47.18851c-1.34406,14.5531 -9.56714,27.09128 -15.95423,39.84182c-1.74536,-8.57745 -0.16534,-15.64419 -1.05078,-23.08224c-7.73883,0.60406 -14.62335,3.74612 -23.45794,5.77838c12.02002,5.14484 17.70471,14.44165 23.68103,25.23258c-9.94934,-2.30097 -18.68775,-4.32187 -28.44123,-6.57758c14.87488,28.41421 31.40424,56.80969 41.89832,87.23993c4.46692,12.95337 4.9552,28.8241 -3.43909,40.39941c-3.02331,4.16901 -7.10034,7.45423 -11.77051,9.60541c-2.81598,1.29718 -5.81598,2.15924 -8.86847,2.67816c-2.28704,0.3888 -7.04486,-0.38312 -8.73663,1.5362c42.62299,31.55481 64.83423,83.57556 62.64935,136.14141c-13.28576,-11.73895 -25.85589,-22.19708 -40.34692,-32.01654c55.95294,94.8075 44.91638,185.77173 -11.57166,274.72406c-1.95489,-19.78717 -2.39166,-39.66211 -7.51635,-58.99102c-3.51081,23.32403 -6.62696,46.62774 -7.92554,71.22052c-30.87659,-17.75275 -50.46179,-49.10505 -57.17682,-83.65674c-3.26245,12.1308 -2.71149,34.51874 7.65387,60.46051c-70.38025,-36.28882 -146.98334,-83.1687 -155.27557,-169.67456c-5.91504,13.36389 -1.5921,33.84747 0.44183,47.57251c3.12488,21.08594 10.43561,40.63659 19.24207,59.95654c-32.41736,-22.98553 -63.8562,-50.12872 -86.11667,-83.36706c-10.85669,-16.21064 -19.08664,-33.91602 -23.77069,-52.88672c-5.02274,-20.34272 -3.81247,-40.20966 -5.52512,-60.81128c-11.73169,33.82373 -4.70615,71.69433 7.71469,104.18811c-17.98153,-16.69629 -34.62582,-35.00208 -47.16382,-56.22357c-12.98983,-21.98645 -19.0946,-45.63971 -20.95947,-70.98737c-4.27441,-58.09729 8.35385,-115.9975 9.30417,-174.01709c0.22656,-13.83261 -0.16306,-27.677 -1.23712,-41.47049c-1.04733,-13.45032 -1.53464,-28.47104 -5.90515,-41.32672c-6.67484,-19.63382 -25.38321,-35.1702 -44.90476,-41.01602c-44.46063,-13.31394 -76.96011,26.58273 -74.19279,68.6965c1.79928,27.38229 18.7169,51.68716 38.52195,69.62845c9.79389,8.87231 21.26059,17.69617 33.36594,23.17334c14.47348,6.54858 28.35141,0.19501 42.57065,-3.96436c0,7.32325 0,13.97852 0,20.6836c-26.60803,14.7854 -50.56561,6.42334 -74.05057,-10.12482c-2.26611,39.7074 -7.18524,78.76538 -16.01684,117.5708c-4.25553,18.69849 -8.40427,37.84711 -14.34717,56.09357c-5.09882,15.65521 -18.16883,20.27374 -31.46764,28.01056zm308.58299,-508.00566c35.00153,-9.02822 67.17847,-22.7732 96.28272,-43.41225c26.62341,-18.87979 48.52203,-41.87666 61.768,-72.22211c1.43061,-3.27717 2.70826,-6.633 3.84345,-10.02379c1.11706,-3.33615 1.9624,-6.76323 3.42786,-11.90957c-1.66828,2.04104 -2.17054,2.47433 -2.44849,3.02155c-15.89655,31.29456 -39.62915,55.4781 -68.55634,74.7365c-40.72802,27.11489 -85.64605,44.97107 -132.44427,59.08251c-7.78647,-4.92075 -15.51724,-10.04849 -23.48663,-14.77387c-7.78946,-4.61871 -15.72644,-9.01294 -23.77506,-13.16371c-8.23389,-4.24632 -16.54834,-8.39305 -25.07379,-12.00143c-8.51746,-3.60491 -17.31351,-6.56349 -26.03632,-9.66799c-8.53463,-3.03756 -17.2817,-5.39799 -26.16467,-7.13052c-8.84918,-1.72581 -17.66907,-3.96611 -26.83408,-3.43773c1.23191,1.07115 2.55069,1.62093 3.91031,2.03752c48.43879,14.84046 90.48291,40.73451 128.20093,74.11832c1.89209,1.67465 3.8363,3.11279 3.95883,6.09201c0.58908,14.32144 1.33417,28.63647 2.03107,43.10318c-22.76321,17.96722 -45.4136,35.89795 -68.15155,53.71695c-2.45343,1.92273 -4.23465,3.78863 -4.52518,7.10882c-2.00772,22.94199 -3.7669,45.89463 -3.3088,68.9477c0.05776,2.90631 0.67224,5.88043 1.50698,8.68054c12.33252,41.36743 18.67258,83.52136 16.93378,126.76654c-0.04712,1.17218 -0.79065,2.68182 0.94354,3.52368c4.2692,-17.80438 4.8274,-36.06976 6.95511,-54.23413c10.70069,19.64374 18.78009,40.20813 26.27106,60.97357c7.38016,20.45819 14.00067,41.19043 20.9545,61.80249c0.30877,-0.07629 0.61755,-0.15252 0.9263,-0.22876c-2.30661,-19.22552 -4.61322,-38.45117 -6.9198,-57.67675c28.94909,30.5863 57.9851,59.84747 94.37103,81.50592c19.85693,-35.26026 46.93793,-62.40375 83.68402,-79.47516c-14.58966,-12.52069 -18.81134,-22.7688 -14.02173,-33.26477c3.83838,-8.41132 14.43738,-14.46717 23.51129,-13.31226c-4.61755,5.98431 -9.46295,12.25751 -5.39532,20.04889c4.13568,7.92187 11.75635,10.28046 20.35022,10.21625c17.74206,-0.13257 35.48761,0.01947 53.22668,-0.25971c8.6084,-0.13537 12.97516,-4.86938 13.66291,-13.40924c0.48993,-6.08575 -1.1175,-11.66278 -3.37745,-17.19647c-11.25408,-27.5578 -24.96691,-53.92081 -38.97045,-80.13519c-4.85279,-9.08429 -5.67072,-17.7284 0.15344,-26.80457c2.69897,-4.20593 4.66522,-9.0094 6.22058,-13.78406c1.39654,-4.28689 3.69134,-6.49182 8.09924,-7.64975c9.69892,-2.54797 19.24018,-5.69561 28.5885,-8.52075c1.20765,-34.33563 -11.92273,-97.62057 -25.44543,-122.93258c-61.42188,-12.9112 -123.1344,-25.88352 -184.84699,-38.85582zm172.61005,426.74388c7.61041,8.99499 13.48444,18.86554 19.98975,28.36975c-5.24097,-16.6828 -11.73572,-32.77149 -20.52472,-48.2135c-6.10718,-1.35675 -12.23499,-2.71796 -16.87409,-3.7486c-31.08545,12.92175 -43.84485,38.73706 -52.84784,67.43665c12.67139,-14.56269 24.78046,-29.60291 37.96119,-43.74604c10.95715,3.09967 21.59271,2.58692 32.29571,-0.09826zm-147.10632,-585.47089c-36.65369,25.74664 -77.26816,43.43633 -116.85627,65.35252c44.06089,-0.18112 105.93311,-34.92134 116.85627,-65.35252z"/>
   <path id="svg_3" d="m139.76077,437.88187c-6.68786,-10.50754 -30.82629,-41.21771 -45.9234,-28.53067c-7.7326,6.49817 -8.89871,21.95282 -9.92325,31.15692c-0.73315,6.58603 -0.95132,13.206 -0.83572,19.8291c0.10974,6.28678 1.74155,13.59345 0.8298,19.77414c-15.84194,-14.01281 -23.31875,-41.16363 -17.65383,-61.42227c6.49838,-23.23941 30.96542,-35.21484 53.36892,-26.61398c11.69947,4.49148 22.82599,14.01871 27.27301,25.98153c4.90256,13.18836 -3.44623,27.35682 -7.41253,39.84113c-1.93659,6.09552 -4.18055,12.1322 -2.70688,18.60642c1.58517,6.96426 6.9006,10.7362 10.43078,16.54214c8.07465,13.28024 -6.33096,15.28494 -15.84094,10.86789c-12.24856,-5.689 -22.55481,-18.70975 -21.55112,-32.7341c1.16901,-16.3345 18.25361,-24.74741 29.94516,-33.29825z"/>
   <path id="svg_4" d="m325.80115,420.95951c7.90808,-10.07572 15.61151,-18.39282 24.6687,-25.40225c15.30774,-11.84696 32.3985,-16.19529 51.18207,-11.04722c24.52283,6.72095 48.87768,14.0542 73.86407,21.28592c-1.02234,6.20981 -1.9953,12.11927 -3.14764,19.11789c-5.91022,-7.3406 -13.6742,-6.27276 -20.7439,-7.47702c-18.46881,-3.14581 -37.01153,-5.84057 -55.16986,-10.68091c-12.66766,-3.37677 -25.14563,-1.03167 -37.32757,2.89002c-10.7566,3.46283 -21.40809,7.2525 -33.32587,11.31357z"/>
   <path id="svg_5" d="m444.16596,448.81791c-12.49677,-11.42817 -28.68122,-6.76337 -44.02424,-7.42991c-19.41156,-0.84326 -39.0169,-0.60287 -58.07946,3.55442c16.48895,-14.69593 37.07611,-23.53736 59.20019,-24.56873c21.00171,-0.97903 39.70124,5.51847 42.90351,28.44422z"/>
  </g>
 </g>
</svg>