<svg width="100" height="100" xmlns="http://www.w3.org/2000/svg" fill="none">

 <g>
  <title>Layer 1</title>
  <path id="svg_1" fill="black" d="m20.8734,2.67286c-1.556,0.4626 -2.7335,1.26163 -4.4998,3.06995c-3.3222,3.40637 -4.3315,6.05579 -4.3736,11.35459c0,3.7008 0.1262,4.2475 1.3878,6.8127c1.7242,3.4905 5.0465,6.6446 8.2846,7.8641c2.9438,1.0935 7.4015,1.8084 9.3781,1.514c5.7193,-0.9252 7.2333,-1.556 10.5976,-4.3316c0.338,-0.2816 0.67,-0.5573 0.9781,-0.8131l0.0002,-0.0002c0.8419,-0.699 1.5059,-1.2503 1.629,-1.3735c0.1683,-0.1261 -1.598,-0.2944 -3.911,-0.3364c-4.668,-0.0841 -6.7707,-0.4626 -10.135,-1.8083c-3.7849,-1.4719 -6.7707,-3.9111 -8.9575,-7.2754l-0.8411,-1.3037l1.8924,1.514c2.3971,1.9765 6.8128,4.3736 9.5042,5.2567c1.1355,0.3365 4.0372,0.757 6.4764,0.8832c5.467,0.2944 9.6724,-0.4626 17.8729,-3.112c9.2519,-2.9859 12.1116,-4.7521 12.7844,-7.78c0.4626,-1.9766 -0.1682,-3.86899 -1.6821,-5.17266c-5.1727,-4.33157 -13.5414,-4.75211 -27.1669,-1.30368c-8.1585,2.06065 -11.3125,2.35503 -13.8778,1.30368c-0.8411,-0.33643 -1.5981,-0.5467 -1.6822,-0.4626c-0.5467,0.54671 2.1027,2.98586 4.4998,4.16336c2.5653,1.2616 3.0279,1.3457 7.1492,1.3457c2.4391,-0.042 6.6866,-0.3785 9.4621,-0.799c4.9203,-0.757 10.4294,-0.7149 11.8593,0.1262c0.5046,0.2523 -7.6539,1.8083 -16.275,3.0699c-3.7848,0.5888 -9.378,0.1682 -12.4479,-0.9252c-4.1213,-1.4298 -7.3174,-4.62593 -7.3174,-7.35944c0,-1.556 1.0934,-3.44843 2.4391,-4.16335l1.1354,-0.63081l-1.0513,0c-0.5888,0 -1.9765,0.29438 -3.112,0.67286zm50.3807,12.32184c-1.2195,3.0699 -4.3736,5.1305 -11.5228,7.5697c-5.8034,1.9345 -9.2098,3.3643 -11.1443,4.5839c-5.8035,3.6587 -8.2846,7.3174 -8.2846,11.9854c-0.0421,3.911 1.1354,6.0137 5.5511,10.3453c2.5653,2.5232 3.7849,3.9951 3.9951,4.9203c0.1262,0.7569 0.1262,1.3878 -0.0841,1.3878c-0.8411,0 -7.1912,-5.0045 -8.6211,-6.7707c-2.9437,-3.6587 -3.4904,-5.1727 -3.4904,-9.9248c0,-3.6587 -0.0842,-4.2895 -0.6309,-4.1213c-4.0792,1.2196 -8.9575,1.3457 -12.7003,0.3785c-1.556,-0.3785 -2.6914,-0.5046 -2.9438,-0.2523c-0.2102,0.2102 -0.5046,2.4812 -0.6308,5.0465c-0.2102,3.8269 -0.1261,5.0044 0.4626,6.5604l0.715,1.8924l-2.8597,5.1727c-5.0465,9.0836 -5.425,9.9247 -4.9203,10.7237c0.2523,0.4206 1.598,1.3037 3.0278,2.0186l2.6074,1.2617l0,2.355c0,1.8083 0.1682,2.4391 0.6729,2.6494c0.5467,0.2102 0.6308,0.6308 0.4626,1.7662c-0.2103,1.1355 -0.0421,1.6822 0.5887,2.313c0.4206,0.4206 1.0093,0.799 1.2616,0.799c0.2944,0 0.3365,1.1776 0.1682,3.4485c-0.2523,3.0699 -0.1682,3.6587 0.6309,4.8782c1.8924,3.0279 6.6024,3.3223 14.5086,1.0093c11.2705,-3.3222 16.9057,-6.8548 19.5131,-12.2797c0.9251,-1.9345 1.0934,-2.9018 1.0934,-5.9717l0,-3.6167l1.8924,-1.6821c2.8597,-2.5233 4.3736,-5.5511 4.3736,-8.9155c0.0421,-4.2895 -1.8924,-6.7286 -5.3829,-6.7286c-2.4391,0 -4.1633,1.8504 -5.0885,5.467l-0.5047,1.8924l-0.5467,-2.2709c-1.3037,-5.3829 0.4206,-11.691 4.2475,-15.602c2.6914,-2.7756 5.3408,-3.9531 9.336,-4.1213c3.0279,-0.1682 3.5325,-0.0421 6.0137,1.1775c5.467,2.6915 7.822,8.0744 6.4343,14.803c-0.5047,2.3971 -3.1962,8.2847 -4.5839,10.0089c-0.6729,0.8831 -0.5888,0.3785 0.5046,-2.7335c1.2616,-3.4485 1.3457,-4.2475 1.3878,-8.8734c0,-4.9204 -0.0421,-5.1306 -1.2616,-7.1492c-3.2382,-5.2988 -10.9341,-5.8035 -15.7282,-0.9673c-1.3037,1.3037 -2.9438,4.2054 -2.9859,5.2147c0,0.2524 1.3037,0.4206 3.07,0.4206c2.7335,0 3.2802,0.1261 4.5839,1.1354c3.1961,2.4392 4.4156,7.4436 3.0699,12.3639l-0.757,2.7335l1.7243,3.4905c1.2616,2.5653 2.4391,4.1213 4.4997,6.0979c1.514,1.4718 2.8597,2.6073 2.9438,2.5232c0.0841,-0.0841 0.3364,-1.6822 0.5888,-3.5326c0.5046,-3.5745 1.4298,-5.7193 6.3081,-14.7189c1.3878,-2.5232 3.2381,-6.6865 4.0792,-9.2518c4.4157,-13.2891 0.5888,-26.0315 -9.2939,-30.6574c-1.5981,-0.799 -3.5746,-1.514 -4.3316,-1.6822c-1.2616,-0.2103 -1.3878,-0.1261 -2.0186,1.4299zm-8.2426,50.4648c0.7149,-0.5467 1.3458,-1.0934 1.3458,-1.3037c0,-0.757 0.3364,-0.2944 1.7242,2.4391c1.7662,3.4905 5.2988,7.4016 8.2005,8.9996l2.1448,1.2196l0.2943,3.1961c0.1683,1.7662 0.2524,3.2381 0.1683,3.3222c-0.0842,0.0421 -2.6915,1.1776 -5.8035,2.5233c-6.0558,2.5653 -14.1722,6.6866 -18.672,9.4621c-1.556,0.9252 -2.9438,1.6822 -3.154,1.6822c-0.2103,0 -0.7991,-1.2616 -1.3037,-2.8176c-0.5047,-1.556 -1.2616,-3.5746 -1.7242,-4.4998c-0.9252,-1.9345 -0.9673,-2.355 -0.2944,-2.355c0.2944,0 2.2289,-0.8411 4.3316,-1.8504c4.7521,-2.313 7.9902,-5.3829 9.9668,-9.4201c1.2195,-2.4812 1.3877,-3.1961 1.3877,-6.224c0,-3.4064 0,-3.4484 1.3878,-4.3736z" clip-rule="evenodd" fill-rule="evenodd"/>
 </g>
</svg>