<svg width="89" height="96" xmlns="http://www.w3.org/2000/svg" data-name="Layer 1">
 <title>12</title>

 <g>
  <title>Layer 1</title>
  <path id="svg_1" d="m81.9736,41.65c-0.59,-0.67 -1,-1.19 -1.26,-1.46c-0.77,-0.94 -0.92,-3.71 0,-5.26c1,-1.79 -2.85,-10.33 -6.33,-17.25a8.76,8.76 0 0 0 -0.36,-2.64c-0.76,-3 -7.08,-11.8 -13.44,-9.67a12.74,12.74 0 0 0 -5,-2.43a19.11,19.11 0 0 0 -7.07,-0.3a16.4,16.4 0 0 0 -5.81,-0.6a15.71,15.71 0 0 0 -5.24,1.54a37.73,37.73 0 0 0 -4.84,0.28c-2,0.3 -4.72,3 -4.72,3a6.57,6.57 0 0 0 -1,0.39l0,0c0.08,-0.84 0.39,-2.89 -3.66,-5.32c0,0 -4.39,-1.75 -8.21,-1.21c0,0 -6,-1.62 -6.6,0s2.84,2.29 2,6.52c0,0 -4.06,-9.36 -7.91,-5.32c-3.13,3.29 -2.84,6 -1.83,7.14s2.43,3 6.9,4.84a32.48,32.48 0 0 1 -3.24,9.32s5.07,-4.27 5.48,-7.81a29.39,29.39 0 0 1 -5.48,13.9a56,56 0 0 0 8.38,-6.51c-1.7,4.63 -2,9.47 -0.67,11c0.86,1 1.57,1 2.07,0.8a32.72,32.72 0 0 0 0.19,3.4a4.33,4.33 0 0 0 -0.92,4.29a10.5,10.5 0 0 0 1.43,2.58q1,1.25 1.82,2.58c0.66,1.86 1.49,4 2.39,6.23a126.27,126.27 0 0 1 5.22,14.61c1.47,5.89 -0.7,12.38 -2.12,15.72c-0.8,1.89 0,3.93 2,5.31c9.53,6.4 21.26,6.72 31.85,6.72l1.74,0a3.67,3.67 0 0 0 2.86,-1.32a3,3 0 0 0 0.67,-2.47c0.62,-5.72 3.21,-8.55 3.88,-9.2c1,-0.17 5.19,-0.82 11.41,-1.56a8,8 0 0 0 6.94,-5.29c1,-2.61 0.66,-5.78 -0.67,-7.21c-0.77,-0.83 -0.91,-1.45 -0.73,-1.7c2.37,-1.23 2.23,-3.88 1.7,-5.52a3.89,3.89 0 0 0 1,-2.74a6.19,6.19 0 0 0 -1.81,-3.7c0.65,-0.5 1.36,-1 2.06,-1.49c2.08,-1.46 3.18,-2.26 3.44,-3.15s-0.74,-2.47 -6.51,-9.04zm1.94,10.69c-1,0.72 -2.1,1.47 -3,2.23a0.91,0.91 0 0 0 -0.32,0.71a0.9,0.9 0 0 0 0,0.26c-1.28,1 -3.42,2.63 -3.94,3.57c-0.76,1.37 -1.37,5.32 0,4c1.21,-1.21 3.35,-3.71 6,-4.65a2.53,2.53 0 0 1 0.15,0.69a2.28,2.28 0 0 1 -0.83,1.79a0.91,0.91 0 0 0 -0.21,1c0.05,0.12 1.23,2.86 -0.73,3.78l-0.17,0.1a2.22,2.22 0 0 0 -0.79,1.56a3.85,3.85 0 0 0 1.27,2.86a4.37,4.37 0 0 1 0.75,2.66a10.29,10.29 0 0 1 -2.31,1c-0.94,0.15 -3.17,-2.43 -4,-3.79s0,-6.72 0,-6.72c-4.16,5.15 -0.71,11.12 -6.94,11.27s-10.23,-2.77 -13.84,-4.62a16.56,16.56 0 0 0 -6.66,-1.83s1.29,7.3 3.08,10c1.47,2.25 7.55,6.2 9.74,7.31a20,20 0 0 0 -1.78,6.61a0.91,0.91 0 0 0 0,0.3a1.24,1.24 0 0 1 -0.23,1.08a1.83,1.83 0 0 1 -1.43,0.63c-10.77,0 -23,0 -32.56,-6.4c-0.49,-0.33 -2,-1.53 -1.38,-3.08c1.51,-3.56 3.81,-10.48 2.21,-16.88c-0.35,-1.38 -0.78,-2.83 -1.26,-4.3c0.8,-0.26 1.92,-1.19 2.56,-4.22c1.06,-5.07 2.59,-6 2.59,-6c-1.83,-4.34 -4.56,-9.2 0.91,-15s19.47,-1.09 20.47,-1.09s2.92,-1.22 3.83,-4.56s1.22,-4.41 1.22,-4.41a141.48,141.48 0 0 0 -38.33,6.69a14.82,14.82 0 0 0 -1.95,1.4c-0.05,-0.88 -0.07,-1.82 0,-2.84c1.33,-0.51 3.84,-1.43 5.95,-2.07c0,0 -3.2,-3.65 -2.13,-6.84c0,0 1.83,5.93 5,6.39l4.41,-0.89s-2.59,-3.19 -1.67,-5c0,0 1.67,3.35 3.5,4.41c0,0 4,0.15 4.56,-2.28a4.76,4.76 0 0 0 -0.46,-3.86s2.54,2.34 1.88,4.62c0,0 4.21,0.46 5,-2.13l-1,-3s2.81,2 2.42,4.41c0,0 4.79,0.46 5.24,-1.37s-1.47,-3.43 -1.47,-3.43s3.19,1.37 3,3.65c0,0 5.93,0.46 6.54,0a11.93,11.93 0 0 0 1.67,-2.74s-13.07,-4.71 -34.82,-2.58a74.1,74.1 0 0 1 35.75,1.06s0.61,-0.61 0,-2.59s2.86,-1.87 2.86,-1.87s-4,-3.6 -8.21,-3.3a7.35,7.35 0 0 0 -2,0.61s2.23,1.42 1.93,3.55a11.44,11.44 0 0 0 -8.12,-5.48s-1.76,-0.1 -2.4,0.91c0,0 2.39,1.52 2.4,3.45a15.56,15.56 0 0 0 -6.59,-4.36s-2.74,-0.3 -3.45,1.83a4.47,4.47 0 0 1 1.59,1.85s-4.26,-3.12 -7,-1.6a9.72,9.72 0 0 0 -1.66,0.91a5.07,5.07 0 0 1 2.13,1.14l-0.19,-0.06c-7.15,-2.16 -6.66,-3.06 -6.66,-3.06l0,-0.08l3.23,0a16.38,16.38 0 0 1 6.54,-1s2,-2.31 7.91,-0.95a11.28,11.28 0 0 1 9.56,0.73s7.78,-1.8 12.65,4.44a22.56,22.56 0 0 1 8.77,1.57c3.31,6.6 6.63,14.27 6.4,15.6c-1.19,2.1 -1.09,5.69 0.21,7.28c0.23,0.28 0.7,0.82 1.31,1.51c1.51,1.72 5.4,6.15 6,7.43a19,19 0 0 1 -2.7,2.08z"/>
  <path id="svg_2" d="m44.9736,54.33a6.53,6.53 0 0 1 -1.37,-2.68a0.91,0.91 0 0 0 -1.82,0.18a4.69,4.69 0 0 0 0.33,1.21c-1.71,-0.42 -4.71,-1.19 -5.36,-2.4a0.9,0.9 0 0 1 0,-0.8a3.48,3.48 0 0 1 1.23,-1.8a5.45,5.45 0 0 0 1.83,-2.53a7.57,7.57 0 0 1 0.22,4a0.91,0.91 0 0 0 0.77,1l0.13,0a0.91,0.91 0 0 0 0.9,-0.78c1,-6.64 -2.73,-7.64 -4.72,-8.19a3.41,3.41 0 0 0 -4.09,1.5a0.91,0.91 0 1 0 1.63,0.82s0.49,-0.95 2,-0.54a8,8 0 0 1 1.76,0.63a4.34,4.34 0 0 1 -1.59,2.69a5.22,5.22 0 0 0 -1.8,2.54a2.74,2.74 0 0 0 0.13,2.28c1,2 4.42,2.79 6.65,3.34l0.35,0.09c1.22,0.31 2.73,1.47 2.85,2.52c0.07,0.6 -0.41,1.16 -1.41,1.66a4.4,4.4 0 0 1 -3.67,-0.39a17,17 0 0 1 -8.22,-10.35c-1.28,-5.84 1.81,-7.51 4.24,-8.26a4.2,4.2 0 0 1 3.79,0.82a0.91,0.91 0 0 0 1.22,-1.36a6,6 0 0 0 -5.54,-1.21c-4.76,1.46 -6.66,5.06 -5.49,10.4a18.78,18.78 0 0 0 9.21,11.61a7.6,7.6 0 0 0 3.24,0.83a4.49,4.49 0 0 0 2,-0.46c2.31,-1.15 2.5,-2.68 2.41,-3.49a4.51,4.51 0 0 0 -1.81,-2.88z"/>
 </g>
</svg>