<svg width="79" height="96" xmlns="http://www.w3.org/2000/svg" data-name="Layer 1">
 <title>25</title>

 <g>
  <title>Layer 1</title>
  <path id="svg_1" d="m72.52397,39.92512c-0.61,-0.69 -1.08,-1.23 -1.3,-1.51c-0.79,-1 -0.94,-3.83 0,-5.42c1.08,-1.86 -3,-10.76 -6.6,-17.92a19.4,19.4 0 0 0 -5.85,-7.57a7.63,7.63 0 0 0 -6.34,-4.22s-3.09,-3.74 -6.71,-2c-1.13,-0.28 -2.25,-0.54 -3.41,-0.73a43.23,43.23 0 0 0 -13.23,-0.09a8.15,8.15 0 0 0 -4.49,0.35a18.59,18.59 0 0 0 -5.17,2.47s-4.5,1.11 -6.31,3.39c0,0 -5,2.92 -6,6.41l0,0s-5.69,2.92 -4.63,11.24c0,0 -3.23,4.39 -1.55,8.31a7.44,7.44 0 0 0 0.5,8a8.86,8.86 0 0 0 1.55,7.54s-0.46,5 2.64,6.93l0,0a9.2,9.2 0 0 0 1.85,2.52a44.37,44.37 0 0 1 4.12,8.1l0,1.88a1.39,1.39 0 0 0 1.42,-0.13c1.47,6 -0.74,12.69 -2.21,16.13c-0.83,1.95 0,4 2.11,5.48c9.79,6.59 21.89,6.92 32.81,6.92l1.8,0a3.78,3.78 0 0 0 2.95,-1.36a3.13,3.13 0 0 0 0.64,-2.54c0.64,-5.9 3.31,-8.82 4,-9.49c1.08,-0.17 5.35,-0.84 11.76,-1.61a8.24,8.24 0 0 0 7.16,-5.46c1,-2.69 0.68,-6 -0.69,-7.44c-0.8,-0.86 -0.94,-1.49 -0.75,-1.75c2.45,-1.26 2.3,-4 1.75,-5.7a4,4 0 0 0 1,-2.83a6.39,6.39 0 0 0 -1.87,-3.82c0.67,-0.51 1.41,-1 2.13,-1.53c2.15,-1.5 3.28,-2.33 3.54,-3.25s-0.68,-2.53 -6.62,-9.3zm2,11c-1.06,0.74 -2.16,1.51 -3.09,2.3a0.93,0.93 0 0 0 -0.15,1.26c-1.27,0.93 -3.74,2.83 -4.32,3.87c-0.78,1.41 -1.41,5.49 0,4.08s3.58,-4 6.46,-4.87a2.41,2.41 0 0 1 0,0.33a2.35,2.35 0 0 1 -0.83,1.87a0.94,0.94 0 0 0 -0.21,1.06c0.05,0.12 1.25,3 -0.75,3.91l-0.17,0.11a2.29,2.29 0 0 0 -0.81,1.61a4,4 0 0 0 1.31,2.95a4.82,4.82 0 0 1 0.77,3.13a11.17,11.17 0 0 1 -2.5,1.07c-1,0.16 -3.26,-2.51 -4.1,-3.91s0,-6.93 0,-6.93c-4.29,5.31 -0.73,11.47 -7.16,11.62s-10.67,-2.83 -14.38,-4.71a17.08,17.08 0 0 0 -6.87,-1.89s1.33,7.53 3.18,10.35c1.51,2.3 7.67,6.32 10,7.51a20.81,20.81 0 0 0 -1.68,6.36a0.94,0.94 0 0 0 0,0.3a1.28,1.28 0 0 1 -0.24,1.12a1.89,1.89 0 0 1 -1.48,0.65c-11.11,0 -23.7,0 -33.58,-6.6c-0.51,-0.34 -2.11,-1.58 -1.43,-3.18c1.56,-3.67 3.93,-10.8 2.28,-17.41c-0.13,-0.52 -0.28,-1.06 -0.43,-1.6a0.24,0.24 0 0 1 0.23,0.13l-0.59,-1.37c-1.25,-4.11 -3,-8.5 -4.54,-12.47c-0.44,-1.11 -0.87,-2.2 -1.28,-3.25l0.09,-0.25s-0.93,-4.3 -2.38,-6.42c-0.06,-0.25 -0.13,-0.5 -0.17,-0.72a0.93,0.93 0 0 0 0,-0.14a17.32,17.32 0 0 1 -0.51,-1.79c0.74,-2.29 1.72,-6.54 -0.21,-8.9c0,0 3.52,-4.22 2.49,-6.94c0,0 4.74,-2.69 4.1,-4.9c0,0 5.52,-1.14 7.28,-3.78c0,0 5.13,1.18 9.19,-1.17c0,0 2.31,2 6.67,-0.19l0,0s3.1,2.51 5.59,0.37l0,0s5.63,3.27 6.73,0.44c0,0 -2.53,-3.45 -6.13,-2.43a5.72,5.72 0 0 0 -6.2,-1.5a5.58,5.58 0 0 0 -7.34,-0.17s-4.66,-2.71 -8,1.7c0,0 -6,-1.57 -8.47,3.08a1.11,1.11 0 0 0 -0.61,-0.17l3.7,-5l0.48,-0.46c1.66,0.02 4.13,-0.5 7.13,-2.87c0,0 5.33,1.1 7.37,-0.78c0,0 4.86,2.2 7.37,0c0,0 1.73,2.68 6.59,2c0,0 3.92,3.76 7.69,4.23c0,0 1.57,-1.25 -0.78,-3.14a15.44,15.44 0 0 0 -5.33,-3.14s-1.51,-2.53 -6.79,-2a1.66,1.66 0 0 0 -0.64,-1.37a41.71,41.71 0 0 1 4.93,0.5c1.12,0.18 2.22,0.41 3.28,0.68c1.51,1 4.24,2.74 5.85,2.86c0,0 1.77,2.74 4.55,2.61a9.62,9.62 0 0 0 1.24,-0.13a17.93,17.93 0 0 1 5.94,7.38l0,0.07c3.4,6.73 6.88,14.8 6.64,16.21c-1.23,2.17 -1.13,5.86 0.21,7.51c0.23,0.29 0.72,0.84 1.35,1.56c1.55,1.77 5.56,6.34 6.15,7.65a19.57,19.57 0 0 1 -2.69,2.12l0,-0.01z"/>
  <path id="svg_2" d="m34.36397,53.00512a6.74,6.74 0 0 1 -1.41,-2.76a0.94,0.94 0 0 0 -1.87,0.19a4.83,4.83 0 0 0 0.33,1.2c-1.76,-0.43 -4.86,-1.22 -5.52,-2.47a0.93,0.93 0 0 1 0,-0.82a3.59,3.59 0 0 1 1.29,-1.82a5.62,5.62 0 0 0 1.89,-2.61a7.81,7.81 0 0 1 0.23,4.1a0.94,0.94 0 0 0 0.8,1.07l0.14,0a0.94,0.94 0 0 0 0.93,-0.81c1,-6.84 -2.82,-7.88 -4.87,-8.44a3.52,3.52 0 0 0 -4.23,1.53a0.93,0.93 0 0 0 0.41,1.25a1,1 0 0 0 1.27,-0.39c0.09,-0.16 0.62,-1 2.06,-0.57a8.28,8.28 0 0 1 1.81,0.65a4.47,4.47 0 0 1 -1.64,2.78a5.38,5.38 0 0 0 -1.85,2.62a2.82,2.82 0 0 0 0.09,2.3c1.08,2 4.55,2.88 6.85,3.44l0.36,0.09c1.26,0.32 2.82,1.52 2.94,2.6c0.07,0.62 -0.42,1.2 -1.46,1.71c-1.19,0.6 -2.71,0.11 -3.78,-0.4a17.54,17.54 0 0 1 -8.48,-10.64c-1.32,-6 1.87,-7.75 4.38,-8.52a4.33,4.33 0 0 1 3.91,0.85a0.94,0.94 0 0 0 1.26,-1.4a6.24,6.24 0 0 0 -5.72,-1.25a11,11 0 0 0 -2.08,0.87a4.85,4.85 0 0 0 0.47,-1.9c0,-1.73 3.66,0.47 4.49,-2.35c0,0 9.13,-2.51 6.31,-4.71c0,0 -0.54,-1.41 -3.33,-0.63a15.34,15.34 0 0 0 -4.5,2s-1.58,-1.88 -4.71,0s-3.45,3.76 -3.45,3.76a7.44,7.44 0 0 0 -1.1,7s-1.25,2.39 0.47,6c0,0 -0.94,4.4 2.35,7.06c0,0 0,5.8 2.19,7.37c0,0 0.94,6.59 0,8.47c0,0 4.85,-6.48 2.76,-13.11a15.86,15.86 0 0 0 4,2.8a7.84,7.84 0 0 0 3.34,0.86a4.63,4.63 0 0 0 2.09,-0.47c2.38,-1.19 2.58,-2.77 2.49,-3.6a4.65,4.65 0 0 0 -1.91,-2.9z"/>
  <path id="svg_3" d="m14.59397,65.46512l0.11,0.26a1,1 0 0 0 -0.11,-0.26z"/>
  <path id="svg_4" d="m16.59397,71.16512a0.18,0.18 0 0 0 0,0.05c0,0.1 0,0.08 0,-0.05z"/>
  <path id="svg_5" d="m33.67397,18.51512a6.3,6.3 0 0 0 -7.06,0.25a7.15,7.15 0 0 0 -9.56,3s-4.24,-0.94 -5.49,4.71c0,0 -5.49,0.31 -3.14,7.06c0,0 -3.14,3.92 0.16,9.25l1.41,6.75s6.12,12.71 6.43,16.31a41.14,41.14 0 0 1 0.17,5.32c0.15,-0.46 2.36,-1.06 2.81,-1.52s0,-4.55 0,-4.55s0.63,-5.5 -1.73,-6.75c0,0 0.63,-6.51 -3.61,-8c0,0 1.88,-5.31 -0.78,-8.76c0,0 1.88,-6.9 -0.16,-7.69c0,0 3.14,-2.2 2.67,-5.65c0,0 5.65,0.16 6,-3.92a6,6 0 0 0 5.6,-1.41s5.37,0.78 6.31,-0.78c0,0 6.59,-0.47 4.87,-2.67c0.02,-0.01 -1.14,-2.37 -4.9,-0.95z"/>
  <path id="svg_6" d="m12.35397,71.27512l-3.76,-8.53s1.3,8.26 0,9.88c0,0 1.2,2.93 2.17,3.35s1.59,-4.7 1.59,-4.7z"/>
 </g>
</svg>