<svg width="81" height="96" xmlns="http://www.w3.org/2000/svg" data-name="Layer 1">
 <title>17</title>

 <g>
  <title>Layer 1</title>
  <path id="svg_1" d="m74.39506,41.15313c-0.58,-0.66 -1,-1.17 -1.25,-1.44c-0.76,-0.93 -0.9,-3.67 0,-5.19c1,-1.78 -2.86,-10.31 -6.32,-17.16a19.94,19.94 0 0 0 -7.92,-9c-0.08,-2.36 -5.75,-3.36 -5.75,-3.36s-0.14,-1.53 -3.93,-2s-4.54,-2.17 -7.83,-1.77s-4.77,-2.92 -9,-0.06a8.43,8.43 0 0 0 -6.61,1.9s-1.78,-2.47 -6.59,2.93c0,0 -5.34,0.79 -5.48,4.19c-1.94,0 -4.69,0.65 -3.8,5.24c0,0 -3.13,-0.78 -4.73,5.62a9.78,9.78 0 0 0 0,4.6s-2.8,0.6 -2.2,7c0,0 -3.17,3.2 -0.08,8.21c0,0 -2.79,2.23 -1.35,8.13c0,0 -3.77,5.6 0.43,9.55c0,0 -3.4,2.55 -0.8,7.36c0,0 -1.8,4 1.2,7a7.25,7.25 0 0 0 0.8,6.21c1.52,2.58 1.31,3.4 1.12,3.64c0.65,-0.56 3.69,-3.54 1.48,-8.88l-0.4,-1s1.92,-3.79 1.16,-6.1s2.76,-3.94 0,-8a15.58,15.58 0 0 0 1.33,-4.37a9.21,9.21 0 0 0 0.71,1.28c-1.4,2.6 1.33,6.21 1.33,6.21a6,6 0 0 0 0,6.41c-2.68,1.6 -1.57,7.41 -1.57,7.41a20.69,20.69 0 0 0 0.25,7.14a11.84,11.84 0 0 0 -0.2,6.15c-3.22,4.61 1.54,7 1.54,7a6.88,6.88 0 0 0 2.29,-7c3.22,-3.81 0,-6.08 0,-6.08c3.42,-2.27 1,-6.54 1,-6.54c2,-2.4 0,-5.81 0,-5.81c2.23,-3.4 0,-5.41 0,-5.41c2.39,-1.4 0,-6.56 0,-6.56a4.78,4.78 0 0 0 0.71,-1.6c1.1,2.85 2.16,5.78 3,8.53a4.46,4.46 0 0 0 0.4,1.48l0.11,0.39a16.26,16.26 0 0 1 0.42,2.73a3.61,3.61 0 0 0 0,2.42a31.39,31.39 0 0 1 -2.56,10.45a3.84,3.84 0 0 0 0.7,4a6.8,6.8 0 0 0 -0.81,6.51l2.8,-1.4a3.92,3.92 0 0 0 1.93,-2.36c8.88,4.8 19.33,5.06 28.84,5.06l1.72,0a3.62,3.62 0 0 0 2.82,-1.3a3,3 0 0 0 0.61,-2.44c0.61,-5.65 3.17,-8.45 3.83,-9.08c1,-0.17 5.12,-0.81 11.27,-1.54a7.89,7.89 0 0 0 6.85,-5.22c0.94,-2.58 0.65,-5.71 -0.66,-7.12c-0.76,-0.82 -0.9,-1.43 -0.72,-1.68c2.34,-1.21 2.2,-3.83 1.67,-5.45a3.84,3.84 0 0 0 1,-2.71a6.12,6.12 0 0 0 -1.79,-3.66c0.64,-0.49 1.35,-1 2,-1.47c2.03,-1.4 3.15,-2.14 3.4,-3.07s-0.65,-2.43 -6.37,-8.92zm-55.86,38a6.2,6.2 0 0 0 0.33,0.72a3.4,3.4 0 0 0 -0.87,1.06c0.21,-0.59 0.4,-1.18 0.57,-1.8l-0.03,0.02zm-1.6,4.57c0.2,-0.48 0.42,-1 0.65,-1.62a7.31,7.31 0 0 0 0.18,3.21c-0.19,0.14 -0.37,0.29 -0.54,0.44a2,2 0 0 1 -0.26,-2.06l-0.03,0.03zm59.38,-32c-1,0.71 -2.07,1.45 -3,2.21a0.89,0.89 0 0 0 -0.14,1.21c-1.22,0.89 -3.58,2.71 -4.14,3.71c-0.75,1.35 -1.35,5.26 0,3.91s3.43,-3.79 6.18,-4.66a2.3,2.3 0 0 1 0,0.32a2.26,2.26 0 0 1 -0.82,1.77a0.9,0.9 0 0 0 -0.2,1c0,0.12 1.2,2.83 -0.72,3.74l-0.08,0.07a2.19,2.19 0 0 0 -0.78,1.54a3.8,3.8 0 0 0 1.25,2.82a4.62,4.62 0 0 1 0.73,3a10.7,10.7 0 0 1 -2.39,1c-0.93,0.15 -3.13,-2.4 -3.93,-3.75s0,-6.64 0,-6.64c-4.11,5.09 -0.7,11 -6.86,11.13s-10.21,-2.7 -13.77,-4.49a16.35,16.35 0 0 0 -6.58,-1.81s1.27,7.21 3,9.91c1.44,2.21 7.34,6 9.55,7.19a19.94,19.94 0 0 0 -1.58,6.13a0.9,0.9 0 0 0 0,0.29a1.22,1.22 0 0 1 -0.23,1.07a1.81,1.81 0 0 1 -1.42,0.62c-9.92,0 -21.08,0 -30.21,-5.12a8.11,8.11 0 0 0 0,-1.38a4.49,4.49 0 0 0 1.92,-6c2.37,-2.4 0,-6.4 0,-6.4a4.28,4.28 0 0 0 -1,-5.41a4.59,4.59 0 0 0 0.3,-5.7c1.8,-2.51 -0.4,-5.82 -0.4,-5.82c2.4,-2.12 0.4,-6.08 0.4,-6.08a16.45,16.45 0 0 1 -1,-6.19c-0.6,-2.77 0.8,-7.24 0.8,-7.24a17.1,17.1 0 0 1 1,-6c1.57,-0.8 1.4,-4 1.4,-4c2.37,1.8 4.44,-3.2 4.44,-3.2c2.6,2 6,-1.8 6,-1.8c1.83,1.6 5.58,0 5.58,0a3.35,3.35 0 0 0 4.51,0s1.49,-1 0.89,-1.85s-12.93,-2.18 -15.54,-0.56l0,0a5.87,5.87 0 0 0 -2.59,1.61c-4.49,0.29 -5.74,3.13 -5.74,3.13a5.28,5.28 0 0 0 -3.91,5.26c-2.7,2.1 -0.75,5.56 -0.75,5.56c-2.4,1.8 -0.75,8.11 -0.75,8.11a6.16,6.16 0 0 0 1.35,7.18c-2.85,1.32 0.3,6.19 0.15,7a11.59,11.59 0 0 0 -0.22,2.1c-0.95,-2.66 -2,-5.34 -3,-7.84c-0.56,-1.42 -1.11,-2.81 -1.61,-4.12l0.36,0.77a35.5,35.5 0 0 0 0.6,-5.12c0,-1 -1.38,-5.21 1.31,-8.21c0,0 -1.66,-4.7 0.89,-6.61c0,0 -0.83,-4.37 4.21,-5.61c0,0 1.14,-3.11 7.09,-3.52c0,0 2.32,-4.29 19.75,-1.69c0,0 3.4,0.4 2.4,-1.8s-3.86,-1.6 -3.86,-1.6s-9,-1.83 -14,-0.81c-3.94,0.8 -7.63,1.55 -8.73,1.84a6.28,6.28 0 0 0 -4.4,-0.2a8.72,8.72 0 0 1 4.07,-2a10.78,10.78 0 0 1 1.44,0.1s1.54,-2.09 6.9,-1.48c0,0 4.06,-2.22 7.56,-0.11c0,0 5.21,-1.29 9.41,-0.09s6,3.37 7,1.68s-4.57,-4.79 -7.37,-4.47c0,0 -5.21,-2.08 -7.41,-1.68a13.47,13.47 0 0 0 -6.38,-0.05a17.81,17.81 0 0 0 -5.59,-0.84c6.37,-1.95 14.23,-2.75 21.57,1.09l3.12,0.74a14.28,14.28 0 0 1 4.16,1.9a1.21,1.21 0 0 0 1.72,-0.38a18,18 0 0 1 7,8l0,0.07c3.25,6.45 6.59,14.17 6.36,15.52c-1.17,2.07 -1.08,5.62 0.2,7.19c0.22,0.27 0.69,0.81 1.29,1.49c1.49,1.7 5.33,6.07 5.89,7.33a18.71,18.71 0 0 1 -2.62,2l-0.03,0.02z"/>
  <path id="svg_2" d="m37.88506,53.67313a6.46,6.46 0 0 1 -1.35,-2.67a0.9,0.9 0 0 0 -1.79,0.18a4.63,4.63 0 0 0 0.31,1.15c-1.66,-0.39 -4.66,-1.15 -5.29,-2.33a0.89,0.89 0 0 1 0,-0.79a3.44,3.44 0 0 1 1.24,-1.74a5.38,5.38 0 0 0 1.78,-2.47a7.48,7.48 0 0 1 0.22,3.92a0.9,0.9 0 0 0 0.76,1l0.13,0a0.9,0.9 0 0 0 0.89,-0.77c0.95,-6.55 -2.7,-7.55 -4.66,-8.08a3.36,3.36 0 0 0 -4,1.47a0.89,0.89 0 0 0 0.39,1.19a0.91,0.91 0 0 0 1.21,-0.37c0.09,-0.16 0.59,-0.93 2,-0.55a7.93,7.93 0 0 1 1.73,0.62a4.28,4.28 0 0 1 -1.57,2.66a5.15,5.15 0 0 0 -1.77,2.5a2.7,2.7 0 0 0 0.13,2.25c1,1.93 4.36,2.75 6.56,3.3l0.34,0.09c1.21,0.3 2.7,1.45 2.81,2.49c0.07,0.59 -0.4,1.15 -1.4,1.64a4.34,4.34 0 0 1 -3.68,-0.36a16.79,16.79 0 0 1 -8.11,-10.22c-1.26,-5.77 1.79,-7.42 4.19,-8.16a4.15,4.15 0 0 1 3.74,0.81a0.9,0.9 0 0 0 1.2,-1.34a6.26,6.26 0 0 0 -1.83,-1.09c0.73,-0.24 0.42,-1.79 0.35,-2.31s1.6,0.07 1.91,0a19.81,19.81 0 0 0 1.32,2.86s2.94,-0.89 3.16,-3.14c0,0 -0.34,-4.51 -3.16,-5.71s-5.83,-0.6 -7.43,1.8c0,0 -3.61,-1 -4.64,3.45c-0.61,2.63 -0.1,3.59 -0.1,3.59s-2.34,3.74 -0.74,5.77a10.26,10.26 0 0 0 0,1.62a2.52,2.52 0 0 0 0.66,3.6c0,0.1 0.06,0.2 0.1,0.3a5.57,5.57 0 0 0 1.1,5.38s-0.9,3.3 1.2,5.41a8,8 0 0 0 0.45,6.46a4.31,4.31 0 0 0 0.63,5.26s0,3.45 3,4.66c0,0 1.36,2.85 0.61,4.36c-0.65,1.29 1.46,3.59 1.79,3.93c-0.08,0.06 -3,2.4 0,5.23l1,1.65s4.12,-3.61 1.39,-7.67c0,0 0.26,-2.55 -0.62,-3.91a6.45,6.45 0 0 0 0,-4.66s0.57,-2.7 -2.86,-3.45a3.91,3.91 0 0 0 0,-4.51s1.33,-5 0,-6.61a6.22,6.22 0 0 0 0.55,-2l0.37,0.19a7.51,7.51 0 0 0 3.2,0.82a4.43,4.43 0 0 0 2,-0.45c2.28,-1.14 2.47,-2.65 2.38,-3.45a4.46,4.46 0 0 0 -1.8,-2.8zm-5.63,31.41c0,0.12 0,0.19 0,0.19a0.12,0.12 0 0 1 0,-0.19z"/>
  <path id="svg_3" d="m4.29506,82.78313l-0.12,0.1a0.3,0.3 0 0 0 0.12,-0.1z"/>
 </g>
</svg>