<svg xmlns="http://www.w3.org/2000/svg" viewBox="0 0 100 125" fill="none" x="0px" y="0px">
    <path fill-rule="evenodd" clip-rule="evenodd"
        d="M20.8734 2.67286C19.3174 3.13546 18.1399 3.93449 16.3736 5.74281C13.0514 9.14918 12.0421 11.7986 12 17.0974C12 20.7982 12.1262 21.3449 13.3878 23.9101C15.112 27.4006 18.4343 30.5547 21.6724 31.7742C24.6162 32.8677 29.0739 33.5826 31.0505 33.2882C36.7698 32.363 38.2838 31.7322 41.6481 28.9566C41.9861 28.675 42.3181 28.3993 42.6262 28.1435L42.6264 28.1433C43.4683 27.4443 44.1323 26.893 44.2554 26.7698C44.4237 26.6437 42.6574 26.4754 40.3444 26.4334C35.6764 26.3493 33.5737 25.9708 30.2094 24.6251C26.4245 23.1532 23.4387 20.714 21.2519 17.3497L20.4108 16.046L22.3032 17.56C24.7003 19.5365 29.116 21.9336 31.8074 22.8167C32.9429 23.1532 35.8446 23.5737 38.2838 23.6999C43.7508 23.9943 47.9562 23.2373 56.1567 20.5879C65.4086 17.602 68.2683 15.8358 68.9411 12.8079C69.4037 10.8313 68.7729 8.93891 67.259 7.63524C62.0863 3.30367 53.7176 2.88313 40.0921 6.33156C31.9336 8.39221 28.7796 8.68659 26.2143 7.63524C25.3732 7.29881 24.6162 7.08854 24.5321 7.17264C23.9854 7.71935 26.6348 10.1585 29.0319 11.336C31.5972 12.5976 32.0598 12.6817 36.1811 12.6817C38.6202 12.6397 42.8677 12.3032 45.6432 11.8827C50.5635 11.1257 56.0726 11.1678 57.5025 12.0089C58.0071 12.2612 49.8486 13.8172 41.2275 15.0788C37.4427 15.6676 31.8495 15.247 28.7796 14.1536C24.6583 12.7238 21.4622 9.52767 21.4622 6.79416C21.4622 5.23816 22.5556 3.34573 23.9013 2.63081L25.0367 2H23.9854C23.3966 2 22.0089 2.29438 20.8734 2.67286ZM71.2541 14.9947C70.0346 18.0646 66.8805 20.1252 59.7313 22.5644C53.9279 24.4989 50.5215 25.9287 48.587 27.1483C42.7835 30.807 40.3024 34.4657 40.3024 39.1337C40.2603 43.0447 41.4378 45.1474 45.8535 49.479C48.4188 52.0022 49.6384 53.4741 49.8486 54.3993C49.9748 55.1562 49.9748 55.7871 49.7645 55.7871C48.9234 55.7871 42.5733 50.7826 41.1434 49.0164C38.1997 45.3577 37.653 43.8437 37.653 39.0916C37.653 35.4329 37.5688 34.8021 37.0221 34.9703C32.9429 36.1899 28.0646 36.316 24.3218 35.3488C22.7658 34.9703 21.6304 34.8442 21.378 35.0965C21.1678 35.3067 20.8734 37.5777 20.7472 40.143C20.537 43.9699 20.6211 45.1474 21.2098 46.7034L21.9248 48.5958L19.0651 53.7685C14.0186 62.8521 13.6401 63.6932 14.1448 64.4922C14.3971 64.9128 15.7428 65.7959 17.1726 66.5108L19.78 67.7725V70.1275C19.78 71.9358 19.9482 72.5666 20.4529 72.7769C20.9996 72.9871 21.0837 73.4077 20.9155 74.5431C20.7052 75.6786 20.8734 76.2253 21.5042 76.8561C21.9248 77.2767 22.5135 77.6551 22.7658 77.6551C23.0602 77.6551 23.1023 78.8327 22.934 81.1036C22.6817 84.1735 22.7658 84.7623 23.5649 85.9818C25.4573 89.0097 30.1673 89.3041 38.0735 86.9911C49.344 83.6689 54.9792 80.1363 57.5866 74.7114C58.5117 72.7769 58.68 71.8096 58.68 68.7397V65.123L60.5724 63.4409C63.4321 60.9176 64.946 57.8898 64.946 54.5254C64.9881 50.2359 63.0536 47.7968 59.5631 47.7968C57.124 47.7968 55.3998 49.6472 54.4746 53.2638L53.9699 55.1562L53.4232 52.8853C52.1195 47.5024 53.8438 41.1943 57.6707 37.2833C60.3621 34.5077 63.0115 33.3302 67.0067 33.162C70.0346 32.9938 70.5392 33.1199 73.0204 34.3395C78.4874 37.031 80.8424 42.4139 79.4547 49.1425C78.95 51.5396 76.2585 57.4272 74.8708 59.1514C74.1979 60.0345 74.282 59.5299 75.3754 56.4179C76.637 52.9694 76.7211 52.1704 76.7632 47.5445C76.7632 42.6241 76.7211 42.4139 75.5016 40.3953C72.2634 35.0965 64.5675 34.5918 59.7734 39.428C58.4697 40.7317 56.8296 43.6334 56.7875 44.6427C56.7875 44.8951 58.0912 45.0633 59.8575 45.0633C62.591 45.0633 63.1377 45.1894 64.4414 46.1987C67.6375 48.6379 68.857 53.6423 67.5113 58.5626L66.7543 61.2961L68.4786 64.7866C69.7402 67.3519 70.9177 68.9079 72.9783 70.8845C74.4923 72.3563 75.838 73.4918 75.9221 73.4077C76.0062 73.3236 76.2585 71.7255 76.5109 69.8751C77.0155 66.3006 77.9407 64.1558 82.819 55.1562C84.2068 52.633 86.0571 48.4697 86.8982 45.9044C91.3139 32.6153 87.487 19.8729 77.6043 15.247C76.0062 14.448 74.0297 13.733 73.2727 13.5648C72.0111 13.3545 71.8849 13.4387 71.2541 14.9947ZM63.0115 65.4595C63.7264 64.9128 64.3573 64.3661 64.3573 64.1558C64.3573 63.3988 64.6937 63.8614 66.0815 66.5949C67.8477 70.0854 71.3803 73.9965 74.282 75.5945L76.4268 76.8141L76.7211 80.0102C76.8894 81.7764 76.9735 83.2483 76.8894 83.3324C76.8052 83.3745 74.1979 84.51 71.0859 85.8557C65.0301 88.421 56.9137 92.5423 52.4139 95.3178C50.8579 96.243 49.4701 97 49.2599 97C49.0496 97 48.4608 95.7384 47.9562 94.1824C47.4515 92.6264 46.6946 90.6078 46.232 89.6826C45.3068 87.7481 45.2647 87.3276 45.9376 87.3276C46.232 87.3276 48.1665 86.4865 50.2692 85.4772C55.0213 83.1642 58.2594 80.0943 60.236 76.0571C61.4555 73.5759 61.6237 72.861 61.6237 69.8331C61.6237 66.4267 61.6237 66.3847 63.0115 65.4595Z"
        fill="black" />
</svg>