<svg width="76" height="96" xmlns="http://www.w3.org/2000/svg" data-name="Layer 1">
 <title>13</title>

 <g>
  <title>Layer 1</title>
  <path id="svg_1" d="m69.70122,43.66881c-0.56,-0.64 -1,-1.15 -1.22,-1.4c-0.74,-0.91 -0.88,-3.57 0,-5.06c1,-1.74 -2.79,-10 -6.16,-16.73c-0.13,-0.32 -0.28,-0.63 -0.44,-0.95c0.42,-0.17 0.8,-0.69 0.72,-2.06c0,0 0.08,-6.15 -1.82,-7.76a2.16,2.16 0 0 0 -2.87,-0.31l-0.09,-0.12c1,-2.06 -0.09,-5 -1.87,-5.13s-2,1.87 -2,1.87l0.05,0.13l-0.07,0c-0.1,-1.57 -1,-3 -2.26,-3.12a1.67,1.67 0 0 0 -1.49,0.56a2.82,2.82 0 0 0 -2.23,-2.45a1.72,1.72 0 0 0 -1.89,1.3a2.29,2.29 0 0 0 -1.74,-1.3a1.69,1.69 0 0 0 -1.85,1.18a2.75,2.75 0 0 0 -2.07,-2.3a1.76,1.76 0 0 0 -1.94,1.48a2.38,2.38 0 0 0 -1.83,-1.48a1.74,1.74 0 0 0 -1.91,1.38a2.33,2.33 0 0 0 -1.77,-1.38a1.76,1.76 0 0 0 -2,1.5a1.83,1.83 0 0 0 -1,-0.38a1.69,1.69 0 0 0 -1.84,1.16a2.22,2.22 0 0 0 -1.56,-1.16a1.82,1.82 0 0 0 -2,1.67a2,2 0 0 0 -1.27,-0.65c-1.9,-0.15 -2,1.9 -2,1.9l0.07,0.18a2.25,2.25 0 0 0 -1.68,-1.22a1.81,1.81 0 0 0 -2,1.64a1.91,1.91 0 0 0 -1.14,-0.53c-1.9,-0.15 -2,1.9 -2,1.9s0.06,0.17 0.17,0.43a1.88,1.88 0 0 0 -1.06,-0.44c-1.8,-0.14 -2.52,2.2 -2.59,2.46a2.32,2.32 0 0 0 -2.27,1.91a4.65,4.65 0 0 0 -2.33,0.38c-1.19,0.6 -1.43,2.51 -1.46,3.7c-0.63,-0.26 -1.65,-0.54 -2,0.25c-0.55,1.17 0,3.79 0,3.79c-3.63,1 -2.77,4.24 -1.78,6.3l0,0s-2,-0.13 -0.86,3.38c1,2.93 3.25,7.67 4.24,11.08a25.82,25.82 0 0 0 1.05,5.75a75,75 0 0 0 3.56,10.18a121.55,121.55 0 0 1 4.91,14.06c1.42,5.67 -0.67,11.92 -2,15.14c-0.77,1.82 0,3.78 2,5.11c9.1,6.21 20.39,6.51 30.58,6.51l1.68,0a3.53,3.53 0 0 0 2.75,-1.27a2.93,2.93 0 0 0 0.6,-2.37c0.6,-5.51 3.09,-8.23 3.74,-8.86c1,-0.16 5,-0.78 11,-1.5a7.69,7.69 0 0 0 6.68,-5.09c0.92,-2.51 0.64,-5.56 -0.65,-6.94c-0.74,-0.8 -0.87,-1.39 -0.7,-1.63c2.26,-1.19 2.16,-3.74 1.61,-5.34a3.75,3.75 0 0 0 0.94,-2.64a6,6 0 0 0 -1.75,-3.57c0.62,-0.48 1.31,-1 2,-1.43c2,-1.4 3.06,-2.17 3.31,-3s-0.65,-2.36 -6.2,-8.71zm-21.75,48.66a0.88,0.88 0 0 0 0,0.28a1.19,1.19 0 0 1 -0.23,1a1.76,1.76 0 0 1 -1.38,0.61c-10.37,0 -22.12,0 -31.34,-6.16c-0.47,-0.32 -2,-1.47 -1.33,-3c1.48,-3.35 3.69,-10.04 2.15,-16.18a122.71,122.71 0 0 0 -5,-14.28c-1.31,-3.31 -2.55,-6.45 -3.18,-8.74a27.72,27.72 0 0 1 4.91,-4.76c2.52,-1.67 13.55,-5.36 19.53,0l4.26,9.22s2.57,6.33 2,10.55s-2,5.07 -1.17,8.81c0,0 1.24,7 3,9.66c1.41,2.15 7.15,5.89 9.31,7a19.43,19.43 0 0 0 -1.53,5.99zm23.62,-38.38c-1,0.69 -2,1.41 -2.88,2.15a0.87,0.87 0 0 0 -0.14,1.18c-1.18,0.87 -3.49,2.64 -4,3.61c-0.73,1.32 -1.32,5.12 0,3.81s3.34,-3.7 6,-4.54a2.25,2.25 0 0 1 0,0.31a2.2,2.2 0 0 1 -0.8,1.72a0.88,0.88 0 0 0 -0.2,1c0,0.11 1.17,2.76 -0.7,3.65l-0.16,0.1a2.14,2.14 0 0 0 -0.74,1.48a3.7,3.7 0 0 0 1.22,2.75a4.5,4.5 0 0 1 0.72,2.92a10.43,10.43 0 0 1 -2.33,1c-0.91,0.15 -3,-2.34 -3.83,-3.65s0,-6.47 0,-6.47s-8.66,1.36 -13.47,-2.83c-7.6,-6.63 -11.79,-17.74 -13.51,-22.57c0,0 4.55,-5.86 9.23,-7.17l-1.49,-7a115.47,115.47 0 0 1 -14.15,2.62c-7.49,0.88 -12,2.78 -16.86,6.59c0,0 2.32,-4.39 9.5,-6.74s19.55,-2.49 30.97,-6.85l6,-1.32a13.55,13.55 0 0 1 0.73,1.5l0,0.07c3.22,6.25 6.47,13.75 6.27,15.1c-1.15,2 -1.05,5.47 0.2,7c0.22,0.27 0.67,0.79 1.26,1.45c1.45,1.65 5.19,5.92 5.74,7.15a18.26,18.26 0 0 1 -2.58,1.98z"/>
  <path id="svg_2" d="m34.08122,55.86881a6.29,6.29 0 0 1 -1.32,-2.58a0.88,0.88 0 0 0 -1.75,0.18a4.52,4.52 0 0 0 0.31,1.12c-1.64,-0.41 -4.53,-1.14 -5.16,-2.31a0.86,0.86 0 0 1 0,-0.77a3.35,3.35 0 0 1 1.21,-1.7a5.24,5.24 0 0 0 1.76,-2.44a7.29,7.29 0 0 1 0.22,3.82a0.88,0.88 0 0 0 0.74,1l0.13,0a0.88,0.88 0 0 0 0.87,-0.75c0.93,-6.39 -2.63,-7.36 -4.54,-7.88a3.28,3.28 0 0 0 -3.97,1.46a0.87,0.87 0 0 0 0.37,1.15a0.89,0.89 0 0 0 1.18,-0.36c0.09,-0.15 0.58,-0.9 1.92,-0.54a7.73,7.73 0 0 1 1.69,0.61a4.17,4.17 0 0 1 -1.53,2.59a5,5 0 0 0 -1.73,2.44a2.63,2.63 0 0 0 0.13,2.19c1,1.88 4.25,2.68 6.4,3.22l0.34,0.08c1.18,0.29 2.63,1.42 2.74,2.42c0.06,0.58 -0.39,1.12 -1.36,1.6a4.23,4.23 0 0 1 -3.53,-0.4a16.37,16.37 0 0 1 -7.91,-10c-1.23,-5.62 1.74,-7.23 4.09,-8a4,4 0 0 1 3.65,0.79a0.88,0.88 0 0 0 1.17,-1.31a5.82,5.82 0 0 0 -5.34,-1.16c-4.58,1.41 -6.41,4.87 -5.29,10a18.07,18.07 0 0 0 8.88,11.3a7.32,7.32 0 0 0 3.12,0.8a4.32,4.32 0 0 0 2,-0.44c2.22,-1.11 2.41,-2.58 2.32,-3.36a4.34,4.34 0 0 0 -1.81,-2.77z"/>
 </g>
</svg>