<svg width="76" height="96" xmlns="http://www.w3.org/2000/svg" data-name="Layer 1">
 <title>23</title>

 <g>
  <title>Layer 1</title>
  <path id="svg_1" fill="#EF233C" d="m69.41633,40.46394c-0.6,-0.68 -1.06,-1.21 -1.29,-1.49c-0.78,-1 -0.93,-3.79 0,-5.36s-1.87,-8.18 -4.92,-14.48a15.24,15.24 0 0 0 2.64,-3.05c1.09,2.17 -1.71,4.81 -1.71,4.81a30.17,30.17 0 0 0 4.35,-3.33c0.78,-1 2.33,-5.67 -2.64,-6s-6.83,-3.4 -11.65,-6.2a29.76,29.76 0 0 0 -9.78,-3.41a10.69,10.69 0 0 1 5,0c-3.88,-2.22 -7.6,-1.19 -11.25,-1.66a80.43,80.43 0 0 0 -13.74,0a17.77,17.77 0 0 0 -9.49,3.66a14.15,14.15 0 0 0 2,-2.95c-1.69,1.73 -5.57,4.36 -9.92,7.31s-4,10.24 -4,10.24c-3.42,3.11 -3,7.77 -3,10.56a21.29,21.29 0 0 0 0.27,3.12a30,30 0 0 0 1.24,9.72a79.53,79.53 0 0 0 3.77,10.79a128.78,128.78 0 0 1 5.21,14.9c1.5,6 -0.71,12.63 -2.16,16c-0.82,1.93 0,4 2.09,5.42c9.71,6.57 21.67,6.89 32.48,6.89l1.78,0a3.74,3.74 0 0 0 2.92,-1.34a3.1,3.1 0 0 0 0.63,-2.52c0.63,-5.84 3.28,-8.73 4,-9.39c0.58,-0.09 2.1,-0.33 4.38,-0.65a16.35,16.35 0 0 0 6.71,-0.88l0.55,-0.07a8.15,8.15 0 0 0 7.08,-5.4c1,-2.66 0.67,-5.9 -0.69,-7.36c-0.79,-0.85 -0.93,-1.48 -0.74,-1.73c2.42,-1.25 2.27,-4 1.73,-5.63a4,4 0 0 0 1,-2.8a6.32,6.32 0 0 0 -1.85,-3.78c0.66,-0.51 1.39,-1 2.1,-1.52c2.12,-1.49 3.24,-2.3 3.5,-3.21s-0.71,-2.5 -6.6,-9.21zm0.91,17.59c0,0.07 0,0.15 0,0.22a2.33,2.33 0 0 1 -0.85,1.83a0.93,0.93 0 0 0 -0.21,1c0,0.1 0.85,2 0.06,3.18a4.89,4.89 0 0 0 -3.68,3.11s1.09,3.88 0.31,4.66s-4.81,-2 -4.35,-6.21s3.18,-4.71 6.36,-6.52l2.36,-1.27zm1.07,-6.69c-1.05,0.74 -2.14,1.5 -3.05,2.28a0.93,0.93 0 0 0 0,1.44l0,0a14,14 0 0 0 -2.55,1.49c-1.4,1.09 -5.74,0.78 -6.21,7.45c0,0 -0.78,2.64 -3.1,2.48s-13.31,-10.39 -16.41,-12.55s-5.4,-8.07 -5.4,-8.07s2,7 1.37,11.33s-0.78,8.38 0,10.55c0,0 8.46,10 15.73,13.14l-0.13,0a0.93,0.93 0 0 0 -0.43,0.19c-0.16,0.13 -4,3.32 -4.83,10.94a0.93,0.93 0 0 0 0,0.3a1.26,1.26 0 0 1 -0.24,1.11a1.87,1.87 0 0 1 -1.46,0.64c-11,0 -23.44,0 -33.22,-6.53c-0.45,-0.33 -2.08,-1.6 -1.45,-3.14c1.54,-3.63 3.89,-10.69 2.26,-17.22a130.09,130.09 0 0 0 -5.26,-15.14a79.28,79.28 0 0 1 -3.69,-10.53a1,1 0 0 0 0,-0.13a27.75,27.75 0 0 1 -1.16,-9.44c1,-2 2.48,-4.42 4.54,-5.66a28,28 0 0 0 6.36,-5.28a97.07,97.07 0 0 0 13.5,-1.4c2.95,-0.62 10.24,1.24 10.24,1.24a14,14 0 0 0 -5.59,-2.33c6.8,-0.43 13.8,3.43 13.8,3.43c-1.24,-3.88 -8.69,-5.43 -8.69,-5.43a55,55 0 0 1 7.6,1.86c2.33,0.93 4.81,4.81 4.81,4.81c-0.16,-2.79 6.21,-7.6 6.21,-7.6c2,1.86 -2,6.05 -2,6.05a29.17,29.17 0 0 0 7.14,-4.1c-0.31,3.34 -3.57,4.88 -3.57,4.88a12.36,12.36 0 0 0 5.17,-2.12c2.69,5.66 5,11.26 4.79,12.41c-1.21,2.14 -1.11,5.8 0.21,7.43c0.23,0.28 0.71,0.83 1.33,1.54c1.54,1.75 5.51,6.28 6.09,7.58a19.37,19.37 0 0 1 -2.7,2.1l-0.01,0z"/>
  <path id="svg_2" fill="#EF233C" d="m31.67633,53.40394a6.66,6.66 0 0 1 -1.4,-2.73a0.93,0.93 0 0 0 -1.85,0.19a4.79,4.79 0 0 0 0.32,1.19c-1.74,-0.43 -4.81,-1.21 -5.47,-2.45a0.92,0.92 0 0 1 0,-0.81a3.55,3.55 0 0 1 1.26,-1.84a5.56,5.56 0 0 0 1.87,-2.58a7.73,7.73 0 0 1 0.23,4.05a0.93,0.93 0 0 0 0.79,1.05l0.13,0a0.93,0.93 0 0 0 0.92,-0.8c1,-6.77 -2.79,-7.8 -4.81,-8.35a3.48,3.48 0 0 0 -4.18,1.52a0.92,0.92 0 0 0 0.4,1.23a0.94,0.94 0 0 0 1.25,-0.38c0.09,-0.16 0.61,-1 2,-0.57a8.19,8.19 0 0 1 1.79,0.64a4.42,4.42 0 0 1 -1.62,2.75a5.32,5.32 0 0 0 -1.83,2.59a2.79,2.79 0 0 0 0.14,2.32c1.06,2 4.5,2.85 6.78,3.41l0.36,0.09c1.25,0.31 2.79,1.5 2.91,2.57c0.07,0.61 -0.42,1.18 -1.44,1.7c-1.18,0.59 -2.68,0.11 -3.74,-0.39a17.35,17.35 0 0 1 -8.37,-10.53c-1.3,-6 1.85,-7.67 4.33,-8.43a4.28,4.28 0 0 1 3.87,0.84a0.93,0.93 0 0 0 1.24,-1.39a6.18,6.18 0 0 0 -5.66,-1.23c-4.86,1.49 -6.79,5.16 -5.6,10.61a19.16,19.16 0 0 0 9.4,11.84a7.76,7.76 0 0 0 3.31,0.85a4.58,4.58 0 0 0 2.07,-0.47c2.35,-1.18 2.55,-2.74 2.46,-3.57a4.6,4.6 0 0 0 -1.86,-2.92z"/>
 </g>
</svg>