<?xml version="1.0" standalone="no"?>
<!DOCTYPE svg PUBLIC "-//W3C//DTD SVG 20010904//EN"
 "http://www.w3.org/TR/2001/REC-SVG-20010904/DTD/svg10.dtd">
<svg version="1.0" xmlns="http://www.w3.org/2000/svg"
 width="4100.000000pt" height="4100.000000pt" viewBox="0 0 4100.000000 4100.000000"
 preserveAspectRatio="xMidYMid meet">
<metadata>
Created by potrace 1.16, written by Peter Selinger 2001-2019
</metadata>
<g transform="translate(0.000000,4100.000000) scale(0.100000,-0.100000)"
fill="#fff" stroke="none">
<path d="M19470 31319 c-61 -31 -180 -136 -180 -159 0 -6 214 -10 590 -10 387
0 590 3 590 10 0 22 -121 129 -176 156 l-59 29 -350 3 -350 3 -65 -32z"/>
<path d="M23050 31283 c-41 -36 -115 -103 -165 -148 -49 -45 -153 -135 -230
-200 -77 -65 -149 -127 -160 -140 -19 -21 -161 -145 -300 -260 -33 -28 -75
-66 -95 -85 -19 -19 -94 -84 -165 -145 -71 -60 -154 -133 -185 -161 -55 -51
-267 -236 -328 -286 l-33 -28 134 -152 c73 -84 155 -180 182 -213 87 -108 130
-155 140 -155 10 0 225 283 278 368 15 23 98 138 185 255 87 116 176 239 197
272 22 33 114 160 205 283 91 122 180 246 199 275 19 29 103 145 188 258 145
195 153 209 153 252 0 60 -18 77 -78 76 -43 0 -53 -6 -122 -66z"/>
<path d="M19174 30986 c-44 -20 -99 -71 -118 -110 -12 -26 -16 -66 -16 -177 0
-133 2 -145 24 -184 25 -42 78 -85 129 -104 19 -7 250 -11 691 -11 l662 0 54
33 c76 45 116 112 125 212 13 134 -9 222 -73 289 -67 69 -30 66 -774 66 -540
-1 -679 -3 -704 -14z"/>
<path d="M25712 30601 c-102 -45 -181 -139 -203 -241 -11 -49 -23 -92 -54
-190 -15 -47 -31 -103 -35 -125 -11 -54 -23 -98 -47 -170 -20 -62 -28 -86 -63
-215 -12 -41 -25 -88 -30 -105 -5 -16 -13 -46 -19 -65 -5 -19 -19 -69 -30
-110 -12 -41 -27 -93 -33 -115 -17 -61 -59 -197 -69 -223 -5 -13 -9 -33 -9
-44 0 -12 -11 -53 -23 -92 -13 -39 -29 -89 -35 -111 -7 -22 -19 -65 -27 -95
-9 -30 -21 -73 -27 -95 -19 -72 -27 -99 -52 -175 -13 -41 -29 -100 -36 -130
-13 -62 -27 -108 -45 -160 -7 -19 -18 -55 -25 -80 -7 -25 -16 -55 -21 -68 -5
-13 -9 -34 -9 -48 0 -14 -7 -39 -16 -57 -25 -47 -24 -182 1 -237 18 -39 18
-43 2 -70 -21 -34 -21 -86 -2 -120 23 -40 18 -49 -37 -75 -102 -48 -194 -29
-278 55 -67 67 -126 132 -163 183 -29 38 -62 48 -85 25 -18 -18 -15 -40 11
-68 12 -14 45 -52 72 -85 28 -32 57 -66 65 -75 8 -9 24 -28 35 -43 11 -15 51
-43 89 -62 60 -30 78 -35 142 -35 71 0 184 30 184 49 0 21 56 34 157 35 97 1
113 4 160 28 28 15 71 44 96 65 56 48 73 61 121 98 22 17 49 39 61 50 12 11
57 47 100 80 43 33 83 65 89 70 6 6 29 23 51 39 22 16 45 34 50 40 6 7 28 25
50 41 22 16 56 43 76 60 57 48 82 68 124 99 22 16 45 34 50 41 6 6 35 29 65
52 30 22 87 66 125 97 39 31 96 78 129 104 32 26 64 52 70 57 6 6 29 23 51 39
22 16 45 34 50 40 6 7 28 25 50 41 22 16 56 43 76 60 57 48 82 68 124 99 22
16 45 34 50 41 6 6 35 30 66 52 31 23 62 48 70 55 8 8 46 38 84 67 39 30 79
62 90 72 11 10 72 58 135 108 153 120 185 153 220 227 26 54 30 73 30 149 0
76 -4 94 -30 149 -34 69 -69 98 -94 77 -12 -11 -21 -9 -43 7 -95 68 -207 47
-330 -60 -21 -19 -55 -47 -77 -63 -21 -17 -53 -41 -71 -55 -18 -14 -88 -70
-156 -125 -68 -55 -140 -112 -159 -127 -19 -15 -78 -62 -130 -103 -52 -42
-120 -95 -150 -118 -30 -23 -60 -47 -66 -52 -6 -6 -40 -33 -75 -60 -89 -70
-142 -124 -164 -170 -23 -48 -25 -128 -4 -170 14 -29 14 -31 -12 -50 -47 -35
-131 -102 -284 -225 -82 -66 -180 -144 -217 -173 -61 -47 -84 -77 -59 -77 5 0
24 -30 42 -67 43 -87 47 -182 12 -252 -13 -25 -23 -50 -23 -58 0 -7 -27 -35
-59 -62 -169 -140 -396 -90 -493 108 -18 36 -23 63 -23 126 1 75 8 103 37 149
73 111 142 151 263 151 44 0 91 -3 105 -7 24 -7 26 -4 49 70 14 42 28 95 32
117 4 22 17 72 29 110 12 39 33 111 47 160 14 50 37 127 50 173 l25 82 42 0
c45 0 95 21 139 60 34 29 53 63 66 116 16 63 28 104 56 194 14 47 35 120 45
162 11 42 28 103 38 135 20 61 51 168 71 243 17 64 26 94 56 190 15 47 30 103
35 125 4 22 20 78 35 125 15 47 30 115 32 151 4 63 3 70 -33 127 -21 34 -48
66 -61 73 -12 6 -23 23 -25 38 -4 36 -40 51 -128 51 -61 -1 -87 -6 -138 -29z"/>
<path d="M20708 30332 l-28 -17 0 -450 0 -451 72 -99 c40 -55 113 -161 163
-235 50 -74 126 -185 169 -246 l79 -112 132 -21 c73 -12 141 -21 151 -21 17 0
228 -227 273 -293 8 -12 41 -51 73 -86 32 -36 57 -69 54 -75 -70 -155 -90
-247 -83 -381 6 -114 31 -206 84 -307 78 -150 241 -298 396 -360 79 -31 88
-33 247 -36 153 -3 170 -2 243 21 115 37 209 97 307 196 97 98 150 182 185
294 22 69 25 96 25 228 0 135 -3 159 -26 227 -35 107 -95 203 -178 287 -98 99
-191 159 -306 197 -86 29 -107 31 -225 32 -98 0 -145 -4 -189 -17 -32 -10 -59
-17 -60 -15 -1 2 -33 39 -72 83 -39 44 -75 87 -80 96 -5 9 -84 102 -175 205
-92 104 -186 214 -210 244 -24 30 -117 138 -207 240 -90 102 -171 196 -180
210 -9 14 -71 86 -137 160 -66 74 -149 170 -185 213 -138 166 -264 307 -274
307 -6 0 -23 -8 -38 -18z m551 -941 c30 -17 51 -63 51 -115 0 -38 -5 -51 -34
-79 -96 -96 -251 -9 -217 121 23 85 115 118 200 73z m1426 -1161 c67 -32 141
-103 173 -166 11 -21 25 -72 32 -111 14 -88 0 -193 -35 -263 -25 -49 -104
-129 -151 -153 -39 -20 -152 -47 -195 -47 -50 0 -171 33 -212 59 -52 32 -116
106 -145 169 -24 50 -27 69 -27 162 0 99 2 110 33 172 51 105 153 185 263 208
78 16 195 3 264 -30z"/>
<path d="M19220 30035 c0 -124 3 -225 8 -224 7 0 43 28 324 248 73 57 156 120
185 140 29 20 52 42 53 49 0 9 -63 12 -285 12 l-285 0 0 -225z"/>
<path d="M19925 30170 c-113 -85 -240 -183 -567 -438 l-138 -107 0 -242 c0
-134 3 -243 8 -243 4 0 50 34 102 75 52 41 181 140 285 220 269 206 480 369
625 483 69 54 167 129 218 167 l92 70 0 46 c0 34 -5 49 -16 53 -9 3 -122 6
-253 6 l-237 0 -119 -90z"/>
<path d="M15279 30171 c-53 -54 -33 -140 40 -171 39 -16 76 -6 112 30 41 40
41 100 0 141 -24 24 -38 29 -76 29 -38 0 -52 -5 -76 -29z"/>
<path d="M15872 30154 c-80 -90 -202 -379 -202 -476 0 -16 -3 -28 -7 -26 -222
113 -298 137 -449 145 l-100 5 -32 -32 -32 -32 0 -171 c0 -193 12 -259 65
-373 19 -38 55 -97 80 -130 l46 -59 -198 -6 c-222 -6 -292 -19 -409 -76 -135
-66 -257 -186 -321 -315 -56 -114 -66 -154 -71 -293 -5 -155 8 -219 68 -340
75 -152 176 -254 325 -326 152 -74 52 -69 1510 -69 l1310 0 50 24 c64 30 121
87 151 151 19 39 24 67 24 128 0 95 -29 166 -91 222 l-41 37 20 21 c34 38 71
104 92 166 25 76 27 222 4 302 -48 164 -193 305 -360 351 -22 6 -171 14 -332
17 l-293 6 46 59 c25 33 61 92 80 130 53 114 65 180 65 373 l0 171 -32 32 -32
32 -100 -5 c-130 -7 -207 -27 -336 -90 -58 -28 -107 -52 -110 -54 -3 -2 -12
29 -19 69 -26 143 -118 347 -194 434 -36 41 -43 44 -87 44 -45 0 -51 -3 -88
-46z m126 -356 c37 -113 52 -197 52 -303 0 -44 -5 -109 -11 -145 -12 -73 -68
-250 -79 -250 -11 0 -67 177 -79 250 -24 146 -10 293 41 448 17 50 34 92 38
92 4 0 21 -42 38 -92z m-634 -243 c88 -26 171 -72 245 -134 47 -39 47 -41 69
-145 11 -58 36 -145 56 -192 l34 -87 -61 6 c-210 17 -388 177 -433 386 -17 83
-19 191 -2 191 7 0 48 -11 92 -25z m1296 -37 c-1 -184 -80 -340 -219 -432 -79
-52 -144 -76 -228 -83 l-63 -6 29 64 c30 68 65 193 76 271 6 43 12 53 62 93
78 64 135 96 228 127 117 39 115 40 115 -34z m648 -769 c99 -49 152 -128 160
-240 6 -88 -16 -154 -74 -218 -24 -27 -65 -59 -91 -72 l-48 -24 -1165 -3
c-1142 -2 -1166 -2 -1197 17 -57 36 -53 128 7 158 20 10 267 13 1169 13 l1143
0 34 34 c46 46 47 99 5 145 l-29 31 -1174 0 -1175 0 -61 -30 c-155 -78 -217
-256 -142 -408 35 -70 82 -114 154 -148 l51 -24 1258 0 c1102 0 1262 -2 1287
-15 56 -29 67 -93 24 -144 l-26 -31 -1271 0 c-1382 0 -1316 -2 -1435 56 -31
15 -83 55 -117 89 -96 95 -145 214 -145 350 0 216 131 399 336 470 l69 24
1196 0 1196 1 61 -31z"/>
<path d="M16489 30171 c-79 -80 15 -216 117 -168 48 23 68 58 61 110 -8 57
-43 87 -103 87 -37 0 -51 -6 -75 -29z"/>
<path d="M20352 29827 c-196 -149 -532 -409 -762 -588 -85 -66 -202 -156 -260
-200 l-105 -80 -5 -250 c-3 -137 -3 -249 0 -249 3 0 46 32 95 71 50 39 153
118 230 177 77 58 171 131 209 161 66 54 239 187 621 480 l175 134 0 238 c0
185 -3 239 -12 238 -7 0 -91 -59 -186 -132z"/>
<path d="M20325 29134 c-110 -84 -271 -209 -358 -276 -87 -68 -246 -190 -353
-273 -403 -311 -394 -304 -394 -330 l0 -25 284 0 283 0 39 26 c21 15 112 83
202 153 89 69 242 187 340 261 l177 135 3 243 c2 190 0 242 -10 241 -7 0 -103
-70 -213 -155z"/>
<path d="M20680 28835 c0 -173 3 -315 6 -315 12 0 264 246 264 258 0 15 -251
371 -262 371 -5 1 -8 -141 -8 -314z"/>
<path d="M4690 21070 l0 -7820 24 0 c14 0 27 -4 30 -9 3 -5 35 -12 71 -16 36
-3 67 -10 70 -15 3 -4 32 -11 65 -15 33 -4 62 -10 65 -15 3 -4 34 -11 70 -15
36 -3 67 -10 70 -15 2 -4 30 -11 61 -15 32 -4 64 -11 73 -15 16 -9 77 -22 204
-43 37 -6 67 -14 67 -18 0 -4 29 -11 65 -14 36 -4 68 -11 70 -15 3 -5 34 -12
70 -15 36 -4 65 -11 65 -15 0 -5 29 -12 65 -15 36 -4 68 -11 70 -15 3 -5 34
-12 70 -15 36 -4 65 -11 65 -16 0 -4 32 -11 70 -15 39 -3 70 -10 70 -14 0 -5
29 -12 65 -15 36 -4 65 -11 65 -15 0 -4 29 -11 65 -15 36 -3 67 -10 70 -15 2
-4 34 -11 70 -15 36 -3 65 -10 65 -15 0 -4 29 -11 65 -15 36 -3 65 -10 65 -15
0 -4 32 -11 70 -14 39 -4 70 -11 70 -15 0 -5 29 -12 65 -16 36 -3 65 -10 65
-15 0 -4 32 -11 70 -15 39 -4 70 -11 70 -15 0 -4 29 -11 65 -15 36 -3 65 -10
65 -15 0 -4 32 -11 70 -14 38 -4 70 -11 70 -15 0 -5 29 -12 65 -16 36 -3 65
-10 65 -15 0 -4 29 -11 65 -15 36 -3 67 -10 70 -15 2 -4 34 -11 70 -15 36 -3
65 -10 65 -15 0 -4 29 -11 65 -15 36 -3 67 -10 70 -15 2 -4 34 -11 70 -15 36
-3 65 -10 65 -15 0 -4 29 -11 65 -15 36 -3 67 -10 70 -15 2 -4 34 -11 70 -15
36 -3 65 -10 65 -14 0 -4 33 -13 73 -19 98 -17 111 -19 192 -37 39 -9 95 -20
125 -26 30 -6 64 -14 75 -19 11 -5 46 -14 78 -19 31 -6 83 -16 115 -22 31 -6
64 -13 72 -16 19 -8 127 -31 213 -45 37 -6 67 -14 67 -18 0 -4 29 -11 65 -15
36 -3 67 -10 70 -15 2 -4 34 -11 70 -15 36 -3 65 -10 65 -15 0 -4 29 -11 65
-15 36 -3 67 -10 70 -15 2 -4 34 -11 70 -15 36 -3 65 -10 65 -15 0 -4 29 -11
65 -15 36 -3 65 -10 65 -15 0 -4 31 -11 70 -14 39 -4 70 -11 70 -15 0 -5 29
-12 65 -16 36 -3 65 -10 65 -15 0 -4 32 -11 70 -14 39 -4 70 -11 70 -15 0 -5
29 -12 65 -16 36 -3 65 -10 65 -15 0 -4 32 -11 70 -14 39 -4 70 -11 70 -15 0
-5 29 -12 65 -16 36 -3 65 -10 65 -14 0 -5 28 -11 61 -15 34 -3 67 -10 73 -15
6 -5 39 -12 74 -16 34 -4 62 -10 62 -15 0 -4 29 -11 65 -15 36 -3 67 -10 70
-15 2 -4 34 -11 70 -15 36 -3 65 -10 65 -15 0 -4 29 -11 65 -15 36 -3 67 -10
70 -15 2 -4 34 -11 70 -15 36 -3 65 -10 65 -15 0 -4 29 -11 65 -15 36 -3 67
-10 70 -15 2 -4 34 -11 70 -15 36 -3 65 -10 65 -15 0 -4 29 -11 65 -15 36 -3
67 -10 70 -15 2 -4 34 -11 70 -15 36 -3 65 -10 65 -15 0 -4 29 -11 65 -15 36
-3 67 -10 70 -15 3 -4 32 -11 65 -15 33 -4 62 -11 65 -15 3 -4 36 -11 75 -15
38 -4 68 -11 65 -15 -3 -4 27 -11 65 -15 39 -4 70 -11 70 -15 0 -4 32 -11 70
-15 39 -4 70 -11 70 -15 0 -5 31 -12 70 -16 38 -3 67 -10 65 -14 -3 -5 27 -11
65 -15 39 -4 70 -11 70 -15 0 -5 31 -12 70 -16 38 -3 67 -10 65 -14 -3 -5 27
-11 65 -15 38 -4 68 -11 65 -15 -3 -4 27 -11 65 -15 39 -4 72 -11 75 -15 3 -4
33 -11 67 -15 35 -4 68 -11 73 -15 9 -7 98 -26 161 -34 11 -1 24 -5 30 -8 5
-3 37 -9 72 -13 34 -4 62 -10 62 -15 0 -4 29 -11 65 -15 36 -3 67 -10 70 -15
2 -4 34 -11 70 -15 36 -3 67 -10 70 -15 2 -4 30 -11 61 -15 32 -4 64 -11 73
-15 9 -5 41 -14 71 -19 153 -28 177 -33 195 -41 11 -5 47 -14 80 -20 33 -6 85
-15 115 -21 30 -6 64 -14 75 -19 11 -5 47 -14 80 -20 33 -6 85 -15 115 -21 30
-6 64 -14 75 -19 11 -5 46 -14 78 -19 31 -6 83 -16 115 -22 31 -5 66 -14 77
-19 19 -8 43 -13 193 -40 31 -6 64 -15 73 -20 9 -4 41 -11 73 -15 31 -4 59
-11 61 -15 3 -5 34 -12 70 -15 36 -4 68 -11 70 -15 3 -5 34 -12 70 -15 36 -4
65 -11 65 -16 0 -4 31 -11 70 -15 39 -3 70 -10 70 -14 0 -5 29 -12 65 -15 36
-4 65 -11 65 -15 0 -4 32 -11 70 -15 39 -4 70 -11 70 -15 0 -4 29 -11 65 -15
36 -3 65 -10 65 -15 0 -4 29 -11 65 -15 36 -3 67 -10 70 -15 2 -4 34 -11 70
-15 36 -3 65 -10 65 -15 0 -4 29 -11 65 -15 36 -3 67 -10 70 -15 2 -4 34 -11
70 -15 36 -3 65 -10 65 -15 0 -4 29 -11 65 -15 36 -3 65 -10 65 -15 0 -4 32
-11 70 -14 39 -4 70 -11 70 -15 0 -5 29 -12 65 -16 36 -3 65 -10 65 -15 0 -4
32 -11 70 -14 39 -4 70 -11 70 -15 0 -5 29 -12 65 -16 36 -3 65 -10 65 -14 0
-5 28 -11 61 -15 34 -3 67 -10 73 -15 6 -5 39 -12 74 -16 34 -4 62 -10 62 -15
0 -4 29 -11 65 -15 36 -3 67 -10 70 -15 2 -4 34 -11 70 -15 36 -3 65 -10 65
-15 0 -4 29 -11 65 -15 36 -3 67 -10 70 -15 2 -4 34 -11 70 -15 36 -3 67 -10
70 -15 3 -4 32 -11 65 -15 33 -4 62 -10 65 -15 3 -4 34 -11 70 -15 36 -3 65
-10 65 -14 0 -4 33 -13 73 -19 98 -17 111 -19 192 -37 39 -9 95 -20 125 -26
30 -5 62 -12 70 -16 16 -7 107 -26 205 -44 33 -6 65 -15 70 -19 6 -4 38 -11
73 -15 34 -4 64 -10 67 -15 3 -4 34 -11 70 -15 36 -3 65 -10 65 -14 0 -5 28
-11 61 -15 34 -3 67 -10 73 -15 6 -5 39 -12 74 -16 34 -4 62 -10 62 -15 0 -4
28 -10 61 -14 34 -3 67 -10 73 -15 6 -5 39 -12 74 -16 34 -4 62 -10 62 -15 0
-4 29 -11 65 -15 36 -3 65 -10 65 -14 0 -12 112 -25 205 -25 93 0 205 13 205
25 0 4 29 11 65 14 36 4 65 11 65 15 0 5 28 11 63 15 34 4 67 11 73 16 6 5 39
12 73 15 33 4 61 10 61 14 0 5 28 11 63 15 34 4 67 11 73 16 6 5 39 12 73 15
33 4 61 10 61 15 0 4 29 11 65 14 36 4 67 11 70 15 3 5 33 11 67 15 35 4 68
11 73 15 6 4 37 13 70 19 98 18 189 37 205 44 8 4 40 11 70 16 30 6 87 17 125
26 81 18 94 20 193 37 39 6 72 15 72 19 0 4 29 11 65 14 36 4 67 11 70 15 3 5
32 11 65 15 33 4 62 11 65 15 3 5 34 12 70 15 36 4 68 11 70 15 3 5 34 12 70
15 36 4 65 11 65 15 0 5 29 12 65 15 36 4 68 11 70 15 3 5 34 12 70 15 36 4
65 11 65 15 0 5 28 11 63 15 34 4 67 11 73 16 6 5 39 12 73 15 33 4 61 10 61
15 0 4 29 11 65 14 36 4 65 11 65 16 0 4 32 11 70 15 39 3 70 10 70 14 0 5 29
12 65 15 36 4 65 11 65 16 0 4 32 11 70 15 39 3 70 10 70 14 0 5 29 12 65 15
36 4 65 11 65 15 0 5 29 12 65 15 36 4 68 11 70 15 3 5 34 12 70 15 36 4 65
11 65 15 0 5 29 12 65 15 36 4 68 11 70 15 3 5 34 12 70 15 36 4 65 11 65 15
0 5 29 12 65 15 36 4 65 11 65 15 0 4 32 11 70 15 39 4 70 11 70 15 0 5 29 12
65 15 36 4 65 11 65 15 0 4 31 11 70 14 38 4 70 11 70 15 0 5 29 12 65 16 36
3 67 10 70 15 2 4 34 11 70 15 36 3 67 10 70 15 2 4 30 11 61 15 32 4 64 11
73 15 9 5 42 14 74 20 149 27 173 32 192 40 11 5 46 14 78 19 31 6 83 16 115
22 31 5 66 14 77 19 11 5 46 14 78 19 31 6 83 16 115 22 31 5 66 14 77 19 11
5 46 14 78 19 31 6 83 16 115 22 31 5 66 14 77 19 11 5 47 14 80 20 137 26
181 35 190 42 6 3 36 9 68 13 31 4 60 11 62 15 3 5 34 12 70 15 36 4 68 11 70
15 3 5 34 12 70 15 36 4 65 11 65 15 0 5 28 11 63 15 34 4 66 10 71 13 6 3 19
7 30 8 63 8 152 27 161 34 6 4 38 11 73 15 34 4 64 11 67 15 3 4 36 11 75 15
38 4 68 11 65 15 -3 4 27 11 65 15 39 4 70 11 70 15 0 4 29 11 65 15 36 3 65
10 65 15 0 4 31 11 70 15 38 4 68 10 65 15 -2 4 27 11 65 14 39 4 70 11 70 16
0 4 32 11 70 15 39 4 70 11 70 15 0 4 31 11 70 15 38 4 68 11 65 15 -3 4 27
11 65 15 39 4 70 11 70 15 0 4 29 11 65 15 36 3 67 10 70 15 3 5 34 12 70 15
36 4 65 11 65 15 0 5 29 12 65 15 36 4 68 11 70 15 3 5 34 12 70 15 36 4 65
11 65 15 0 5 29 12 65 15 36 4 68 11 70 15 3 5 34 12 70 15 36 4 65 11 65 15
0 5 29 12 65 15 36 4 68 11 70 15 3 5 34 12 70 15 36 4 65 11 65 15 0 5 29 12
65 15 36 4 68 11 70 15 3 5 34 12 70 15 36 4 65 11 65 15 0 5 28 11 63 15 34
4 67 11 73 16 6 5 39 12 73 15 33 4 61 10 61 15 0 4 29 11 65 14 36 4 65 11
65 16 0 4 32 11 70 15 38 3 70 10 70 14 0 5 29 12 65 15 36 4 65 11 65 16 0 4
31 11 70 15 38 3 70 10 70 14 0 5 29 12 65 15 36 4 65 11 65 16 0 4 31 11 70
15 38 3 70 10 70 14 0 5 29 12 65 15 36 4 65 11 65 15 0 5 29 12 65 15 36 4
68 11 70 15 3 5 34 12 70 15 36 4 65 11 65 15 0 5 29 12 65 15 36 4 67 11 70
15 3 5 33 11 67 15 35 4 68 11 73 15 6 4 37 13 70 19 98 18 189 37 205 44 8 4
40 11 70 16 142 26 176 33 195 41 11 5 45 13 75 19 30 6 87 17 125 26 81 18
94 20 193 37 39 6 72 15 72 19 0 4 29 11 65 14 36 4 68 11 70 15 3 5 34 12 70
15 36 4 65 11 65 15 0 5 29 12 65 15 36 4 68 11 70 15 3 5 34 12 70 15 36 4
65 11 65 15 0 5 29 12 65 15 36 4 68 11 70 15 3 5 34 12 70 15 36 4 65 11 65
15 0 5 29 12 65 15 36 4 65 11 65 16 0 4 32 11 70 15 39 3 70 10 70 14 0 5 29
12 65 15 36 4 65 11 65 16 0 4 32 11 70 15 39 3 70 10 70 14 0 5 29 12 65 15
36 4 65 11 65 16 0 4 32 11 70 15 38 3 70 10 70 14 0 5 29 12 65 15 36 4 65
11 65 15 0 5 29 12 65 15 36 4 68 11 70 15 3 5 34 12 70 15 36 4 65 11 65 15
0 4 29 11 65 15 36 3 65 10 65 15 0 4 32 11 70 15 39 4 70 11 70 15 0 4 29 11
65 15 36 3 67 10 70 15 2 4 34 11 70 15 36 3 65 10 65 15 0 4 29 11 65 15 36
3 67 10 70 15 2 4 34 11 70 15 36 3 65 10 65 14 0 4 30 12 68 18 126 21 187
34 203 43 9 4 41 11 73 15 31 4 59 11 61 15 3 5 34 12 70 15 36 4 67 11 70 15
3 5 32 11 65 15 33 4 62 11 65 15 3 5 34 12 70 15 36 4 68 11 71 16 3 5 16 9
30 9 l24 0 0 7820 0 7820 -4335 0 -4335 0 0 -450 0 -450 3885 0 3885 0 0
-6999 0 -6999 -60 -7 c-33 -4 -62 -10 -65 -15 -3 -4 -34 -11 -70 -15 -36 -3
-65 -10 -65 -15 0 -4 -28 -11 -61 -14 -34 -4 -69 -11 -78 -16 -9 -5 -42 -14
-73 -20 -150 -27 -174 -32 -193 -40 -11 -5 -46 -14 -77 -19 -32 -6 -84 -16
-115 -22 -32 -5 -67 -14 -78 -19 -11 -5 -46 -14 -77 -19 -32 -6 -84 -16 -115
-22 -32 -5 -67 -14 -78 -19 -11 -5 -46 -14 -77 -19 -32 -6 -84 -16 -115 -22
-32 -5 -67 -14 -78 -19 -19 -8 -43 -13 -192 -40 -32 -6 -65 -15 -73 -19 -9 -5
-40 -12 -70 -16 -30 -4 -59 -11 -65 -15 -5 -4 -35 -11 -65 -14 -30 -4 -64 -11
-75 -16 -11 -5 -47 -14 -80 -19 -33 -6 -69 -13 -80 -16 -11 -3 -36 -7 -55 -11
-19 -3 -42 -8 -50 -11 -8 -3 -23 -5 -33 -4 -10 1 -24 -2 -30 -7 -7 -5 -37 -13
-67 -17 -30 -4 -59 -11 -65 -15 -5 -4 -38 -11 -73 -15 -34 -4 -64 -11 -67 -15
-3 -4 -36 -11 -75 -15 -38 -4 -68 -11 -65 -15 3 -4 -27 -11 -65 -15 -39 -4
-70 -11 -70 -15 0 -4 -29 -11 -65 -15 -36 -3 -65 -10 -65 -15 0 -4 -31 -11
-70 -15 -38 -4 -68 -10 -65 -15 2 -4 -27 -11 -65 -14 -39 -4 -70 -11 -70 -16
0 -4 -31 -11 -70 -15 -38 -4 -68 -10 -65 -15 2 -4 -27 -11 -65 -14 -39 -4 -70
-11 -70 -16 0 -4 -32 -11 -70 -15 -39 -4 -70 -11 -70 -15 0 -4 -29 -11 -65
-15 -36 -3 -65 -10 -65 -15 0 -4 -32 -11 -70 -15 -39 -4 -70 -11 -70 -15 0 -5
-29 -12 -65 -15 -36 -4 -68 -11 -70 -15 -3 -5 -34 -12 -70 -15 -36 -4 -65 -11
-65 -15 0 -5 -29 -12 -65 -15 -36 -4 -68 -11 -70 -15 -3 -5 -34 -12 -70 -15
-36 -4 -65 -11 -65 -15 0 -5 -29 -12 -65 -15 -36 -4 -68 -11 -70 -15 -3 -5
-34 -12 -70 -15 -36 -4 -65 -11 -65 -15 0 -5 -29 -12 -65 -15 -36 -4 -68 -11
-70 -15 -3 -5 -34 -12 -70 -15 -36 -4 -65 -11 -65 -15 0 -5 -28 -11 -62 -15
-35 -4 -68 -11 -74 -16 -6 -5 -39 -12 -73 -15 -33 -4 -61 -10 -61 -15 0 -4
-29 -11 -65 -14 -36 -4 -65 -11 -65 -16 0 -4 -31 -11 -70 -15 -38 -3 -70 -10
-70 -14 0 -5 -29 -12 -65 -15 -36 -4 -65 -11 -65 -16 0 -4 -31 -11 -70 -15
-39 -3 -70 -10 -70 -14 0 -5 -29 -12 -65 -15 -36 -4 -65 -11 -65 -16 0 -4 -31
-11 -70 -15 -39 -3 -70 -10 -70 -14 0 -5 -29 -12 -65 -15 -36 -4 -65 -11 -65
-15 0 -5 -29 -12 -65 -15 -36 -4 -68 -11 -70 -15 -3 -5 -34 -12 -70 -15 -36
-4 -65 -11 -65 -15 0 -5 -29 -12 -65 -15 -36 -4 -68 -11 -70 -15 -3 -5 -34
-12 -70 -15 -36 -4 -65 -11 -65 -15 0 -4 -30 -12 -67 -18 -90 -15 -194 -37
-213 -45 -8 -4 -40 -11 -70 -17 -94 -17 -184 -36 -200 -43 -8 -3 -42 -10 -75
-16 -64 -12 -75 -14 -145 -31 -25 -6 -57 -11 -72 -10 -15 0 -29 -4 -32 -9 -4
-5 -35 -13 -71 -16 -36 -4 -65 -11 -65 -15 0 -5 -29 -12 -65 -15 -36 -4 -68
-11 -70 -15 -3 -5 -34 -12 -70 -15 -36 -4 -65 -11 -65 -15 0 -5 -29 -12 -65
-15 -36 -4 -68 -11 -70 -15 -3 -5 -34 -12 -70 -15 -36 -4 -65 -11 -65 -15 0
-5 -29 -12 -65 -15 -36 -4 -68 -11 -70 -15 -3 -5 -34 -12 -70 -15 -36 -4 -65
-11 -65 -15 0 -5 -28 -11 -62 -15 -35 -4 -68 -11 -74 -16 -6 -5 -39 -12 -73
-15 -33 -4 -61 -10 -61 -15 0 -4 -29 -11 -65 -14 -36 -4 -65 -11 -65 -16 0 -4
-32 -11 -70 -15 -38 -3 -70 -10 -70 -14 0 -5 -29 -12 -65 -15 -36 -4 -65 -11
-65 -16 0 -4 -31 -11 -70 -15 -38 -3 -70 -10 -70 -14 0 -5 -29 -12 -65 -15
-36 -4 -65 -11 -65 -15 0 -5 -29 -12 -65 -15 -36 -4 -68 -11 -70 -15 -3 -5
-34 -12 -70 -15 -36 -4 -65 -11 -65 -15 0 -5 -29 -12 -65 -15 -36 -4 -68 -11
-70 -15 -3 -5 -34 -12 -70 -15 -36 -4 -65 -11 -65 -15 0 -4 -29 -11 -65 -15
-36 -3 -65 -10 -65 -15 0 -4 -32 -11 -70 -14 -39 -4 -70 -11 -70 -15 0 -5 -29
-12 -65 -16 -36 -3 -67 -10 -70 -15 -2 -4 -34 -11 -70 -15 -36 -3 -65 -10 -65
-14 0 -4 -30 -12 -67 -18 -118 -20 -187 -34 -208 -43 -11 -5 -45 -13 -75 -19
-30 -6 -86 -17 -125 -26 -38 -9 -95 -21 -125 -26 -30 -6 -64 -14 -75 -19 -19
-8 -43 -13 -192 -40 -32 -6 -65 -15 -74 -20 -9 -4 -42 -11 -75 -15 -32 -4 -63
-11 -69 -15 -5 -4 -35 -11 -65 -15 -30 -4 -61 -11 -70 -16 -8 -4 -42 -13 -75
-19 -146 -26 -171 -32 -190 -40 -11 -5 -47 -14 -80 -20 -100 -19 -179 -36
-195 -43 -8 -3 -42 -11 -75 -17 -103 -19 -179 -36 -195 -43 -8 -3 -48 -11 -89
-17 -40 -6 -82 -15 -92 -20 -10 -6 -34 -10 -53 -10 -20 0 -36 -4 -36 -9 0 -5
-9 -7 -20 -4 -11 3 -26 1 -33 -5 -6 -5 -38 -13 -69 -16 -32 -4 -60 -11 -63
-15 -2 -5 -36 -11 -75 -15 -38 -4 -70 -11 -70 -16 0 -4 -31 -11 -70 -15 -38
-4 -68 -11 -65 -15 3 -4 -27 -11 -65 -15 -38 -4 -68 -10 -65 -15 2 -4 -27 -11
-65 -14 -39 -4 -70 -11 -70 -16 0 -4 -31 -11 -70 -15 -38 -4 -70 -11 -70 -15
0 -4 -29 -11 -65 -15 -36 -3 -65 -10 -65 -15 0 -4 -31 -11 -70 -15 -38 -4 -70
-11 -70 -15 0 -4 -31 -11 -70 -15 -38 -4 -68 -11 -65 -15 3 -4 -27 -11 -65
-15 -39 -4 -70 -11 -70 -15 0 -4 -29 -11 -65 -15 -36 -3 -67 -10 -70 -15 -3
-5 -34 -12 -70 -15 -36 -4 -65 -11 -65 -16 0 -4 -31 -11 -70 -15 -38 -3 -70
-10 -70 -14 0 -5 -29 -12 -65 -15 -36 -4 -65 -11 -65 -15 0 -5 -29 -12 -65
-15 -36 -4 -68 -11 -70 -15 -3 -5 -34 -12 -70 -15 -36 -4 -65 -11 -65 -15 0
-5 -29 -12 -65 -15 -36 -4 -68 -11 -71 -16 -7 -12 -71 -12 -78 0 -3 5 -35 12
-71 16 -36 3 -65 10 -65 15 0 4 -29 11 -65 15 -36 3 -67 10 -70 15 -2 4 -34
11 -70 15 -36 3 -65 10 -65 15 0 4 -29 11 -65 15 -36 3 -65 10 -65 15 0 4 -32
11 -70 14 -38 4 -70 11 -70 15 0 5 -29 12 -65 16 -36 3 -67 10 -70 15 -3 5
-34 12 -70 15 -36 4 -65 11 -65 15 0 4 -31 11 -70 15 -38 4 -68 11 -65 15 3 4
-27 11 -65 15 -39 4 -70 11 -70 15 0 4 -32 11 -70 15 -38 4 -70 11 -70 15 0 5
-29 12 -65 15 -36 4 -65 11 -65 15 0 4 -31 11 -70 15 -38 4 -70 11 -70 15 0 5
-31 12 -70 16 -38 3 -67 10 -65 14 3 5 -27 11 -65 15 -38 4 -68 11 -65 15 3 4
-27 11 -65 15 -39 4 -70 11 -70 15 0 5 -32 12 -70 16 -39 4 -73 10 -75 15 -3
4 -31 11 -63 15 -31 3 -63 11 -69 16 -7 6 -22 8 -33 5 -11 -3 -20 -1 -20 4 0
5 -16 9 -36 9 -19 0 -43 4 -53 10 -10 5 -52 14 -92 20 -41 6 -81 14 -89 17
-16 7 -94 24 -195 43 -33 6 -69 15 -80 20 -11 5 -46 14 -77 19 -32 6 -84 16
-115 22 -32 5 -67 14 -78 19 -19 8 -43 13 -192 40 -32 6 -65 15 -73 19 -9 5
-40 12 -70 16 -30 4 -59 11 -65 15 -5 4 -37 11 -69 15 -33 4 -66 11 -75 15 -9
5 -42 14 -73 20 -150 27 -174 32 -193 40 -11 5 -45 13 -75 19 -30 5 -86 17
-125 26 -38 9 -95 20 -125 26 -30 6 -64 14 -75 19 -21 9 -90 23 -207 43 -38 6
-68 14 -68 18 0 4 -29 11 -65 14 -36 4 -68 11 -70 15 -3 5 -34 12 -70 15 -36
4 -65 11 -65 16 0 4 -31 11 -70 15 -39 3 -70 10 -70 14 0 5 -29 12 -65 15 -36
4 -65 11 -65 15 0 4 -29 11 -65 15 -36 3 -67 10 -70 15 -2 4 -34 11 -70 15
-36 3 -65 10 -65 15 0 4 -29 11 -65 15 -36 3 -65 10 -65 15 0 4 -32 11 -70 14
-39 4 -70 11 -70 15 0 5 -29 12 -65 16 -36 3 -65 10 -65 15 0 4 -31 11 -70 14
-39 4 -70 11 -70 15 0 5 -29 12 -65 16 -36 3 -65 10 -65 15 0 4 -31 11 -70 14
-38 4 -70 11 -70 15 0 5 -29 12 -65 16 -36 3 -65 10 -65 14 0 5 -28 11 -61 15
-34 3 -67 10 -73 15 -6 5 -39 12 -73 16 -35 4 -63 10 -63 15 0 4 -29 11 -65
15 -36 3 -67 10 -70 15 -2 4 -34 11 -70 15 -36 3 -65 10 -65 15 0 4 -29 11
-65 15 -36 3 -67 10 -70 15 -2 4 -34 11 -70 15 -36 3 -65 10 -65 15 0 4 -29
11 -65 15 -36 3 -67 10 -70 15 -2 4 -34 11 -70 15 -36 3 -65 10 -65 15 0 4
-29 11 -65 15 -36 3 -67 11 -71 16 -3 5 -17 9 -32 9 -15 -1 -47 4 -72 10 -72
17 -82 19 -145 30 -33 6 -67 13 -75 17 -16 7 -107 26 -205 44 -33 6 -64 15
-70 19 -5 4 -38 11 -73 15 -34 4 -64 10 -67 15 -3 4 -34 11 -70 15 -36 3 -65
10 -65 15 0 4 -29 11 -65 15 -36 3 -67 10 -70 15 -2 4 -34 11 -70 15 -36 3
-65 10 -65 14 0 5 -28 11 -61 15 -34 3 -67 10 -73 15 -6 5 -39 12 -73 16 -35
4 -63 10 -63 15 0 4 -29 11 -65 15 -36 3 -65 10 -65 15 0 4 -31 11 -70 14 -38
4 -70 11 -70 15 0 5 -29 12 -65 16 -36 3 -65 10 -65 15 0 4 -31 11 -70 14 -38
4 -70 11 -70 15 0 5 -29 12 -65 16 -36 3 -65 10 -65 15 0 4 -31 11 -70 14 -38
4 -70 11 -70 15 0 5 -29 12 -65 16 -36 3 -65 10 -65 14 0 5 -28 11 -61 15 -34
3 -67 10 -73 15 -6 5 -39 12 -73 16 -35 4 -63 10 -63 15 0 4 -29 11 -65 15
-36 3 -67 10 -70 15 -2 4 -34 11 -70 15 -36 3 -65 10 -65 15 0 4 -29 11 -65
15 -36 3 -67 10 -70 15 -2 4 -34 11 -70 15 -36 3 -65 10 -65 15 0 4 -29 11
-65 15 -36 3 -67 10 -70 15 -2 4 -34 11 -70 15 -36 3 -65 10 -65 15 0 4 -29
11 -65 15 -36 3 -67 10 -70 15 -2 4 -34 11 -70 15 -36 3 -65 10 -65 15 0 4
-31 11 -70 15 -38 4 -70 11 -70 15 0 5 -31 12 -70 16 -38 3 -70 10 -70 14 0 5
-29 12 -65 15 -36 4 -65 11 -65 16 0 4 -31 11 -70 15 -38 3 -67 10 -65 14 3 5
-27 11 -65 15 -39 4 -70 11 -70 15 0 5 -31 12 -70 16 -38 3 -67 10 -65 14 3 5
-27 11 -65 15 -39 4 -70 11 -70 15 0 5 -29 12 -65 15 -36 4 -65 11 -65 15 0 4
-31 11 -70 15 -38 4 -68 11 -65 15 3 4 -27 11 -65 15 -39 4 -72 11 -75 15 -3
4 -33 11 -67 15 -35 4 -67 11 -73 15 -5 4 -35 11 -65 15 -30 4 -60 12 -67 17
-6 5 -20 8 -30 7 -10 -1 -25 1 -33 4 -8 3 -31 8 -50 11 -19 4 -44 8 -55 11
-11 3 -47 10 -80 16 -33 5 -69 14 -80 19 -11 5 -45 12 -75 16 -30 3 -59 10
-65 14 -5 4 -35 11 -65 15 -30 4 -61 11 -70 16 -8 4 -41 13 -72 19 -150 27
-174 32 -193 40 -11 5 -46 14 -77 19 -32 6 -84 16 -115 22 -32 5 -67 14 -78
19 -11 5 -46 14 -77 19 -32 6 -84 16 -115 22 -32 5 -67 14 -78 19 -11 5 -45
13 -75 19 -30 6 -82 15 -115 21 -33 6 -69 15 -80 20 -19 8 -43 13 -192 40 -32
6 -65 15 -74 20 -9 5 -44 12 -78 16 -33 3 -61 10 -61 15 0 4 -31 11 -70 15
-38 3 -70 10 -70 14 0 4 -27 10 -60 14 l-60 7 0 6999 0 7000 3885 0 3885 0 0
450 0 450 -4335 0 -4335 0 0 -7820z"/>
<path d="M20415 28533 c-130 -100 -344 -268 -365 -286 -12 -10 33 -13 220 -15
129 -1 245 0 258 3 22 5 22 7 22 195 0 146 -3 190 -12 189 -7 0 -62 -39 -123
-86z"/>
<path d="M19190 28079 c-49 -20 -102 -63 -126 -105 -25 -42 -25 -48 -22 -197
3 -151 3 -154 31 -191 16 -20 47 -49 70 -64 l41 -27 670 -3 c369 -2 686 0 704
3 43 8 120 78 143 130 24 55 32 133 24 220 -9 100 -49 167 -125 212 l-54 33
-666 -1 c-412 0 -674 -4 -690 -10z"/>
<path d="M25094 28081 c-73 -19 -153 -90 -174 -156 -17 -53 -15 -153 3 -198
21 -49 99 -121 146 -135 57 -17 140 -14 186 7 50 22 83 52 121 110 26 40 29
53 29 125 -1 85 -16 122 -75 185 -48 50 -164 80 -236 62z"/>
<path d="M19290 27330 c0 -24 119 -129 180 -159 l66 -32 349 3 350 3 59 29
c55 27 176 134 176 156 0 7 -203 10 -590 10 -376 0 -590 -4 -590 -10z"/>
<path d="M16761 26839 c-752 -54 -1414 -322 -1976 -799 -110 -94 -366 -357
-450 -463 -407 -513 -621 -1046 -696 -1727 -17 -148 -17 -620 -1 -770 50 -461
177 -885 374 -1245 395 -723 1083 -1303 1858 -1567 233 -80 510 -139 785 -170
159 -17 662 -17 820 0 837 93 1500 406 2075 982 265 265 460 533 618 849 168
337 264 657 319 1066 25 191 25 746 0 935 -57 420 -147 722 -317 1066 -292
590 -793 1109 -1390 1439 -572 316 -1279 457 -2019 404z m659 -1034 c644 -98
1185 -451 1565 -1019 187 -280 307 -597 361 -951 26 -168 26 -571 1 -735 -83
-535 -306 -973 -687 -1350 -349 -346 -754 -549 -1245 -627 -157 -25 -536 -25
-695 0 -490 76 -874 268 -1229 612 -409 397 -642 864 -712 1430 -16 129 -16
471 0 600 70 564 306 1037 712 1430 372 360 796 562 1303 620 152 18 479 12
626 -10z"/>
<path d="M7970 26180 l0 -510 1841 0 c1555 0 1840 -2 1836 -14 -3 -7 -861
-1058 -1906 -2334 l-1901 -2321 0 -424 0 -424 1802 -6 c991 -4 2208 -7 2705
-7 l903 0 0 515 0 515 -1925 0 c-1557 0 -1925 2 -1925 13 0 7 853 1052 1895
2322 l1895 2310 0 438 0 437 -2610 0 -2610 0 0 -510z"/>
<path d="M21420 23415 l0 -3275 560 0 560 0 2 2374 3 2374 1843 -2374 1844
-2374 599 0 599 0 0 3275 0 3275 -555 0 -555 0 -2 -2429 -3 -2430 -1889 2430
-1890 2429 -558 0 -558 0 0 -3275z"/>
<path d="M29305 23423 c-791 -1798 -1440 -3271 -1442 -3276 -3 -4 264 -6 593
-5 l597 3 326 742 326 742 1634 -2 1634 -2 249 -565 c136 -311 283 -643 324
-737 l77 -173 594 0 c563 0 595 1 589 18 -4 9 -651 1481 -1439 3269 l-1432
3252 -595 1 -595 0 -1440 -3267z m2624 572 c321 -729 582 -1328 579 -1330 -3
-3 -531 -4 -1175 -3 l-1170 3 585 1328 c322 730 588 1327 591 1327 3 0 269
-596 590 -1325z"/>
<path d="M7910 19390 l0 -270 13495 0 13495 0 0 270 0 270 -13495 0 -13495 0
0 -270z"/>
<path d="M9280 18653 c0 -5 314 -789 698 -1743 l697 -1735 337 -3 c263 -2 337
0 341 10 4 10 1371 3407 1394 3466 4 10 -63 12 -332 10 l-337 -3 -531 -1292
c-460 -1116 -533 -1288 -543 -1270 -6 12 -247 595 -535 1295 l-523 1272 -333
0 c-183 0 -333 -3 -333 -7z"/>
<path d="M20700 16915 l0 -1745 300 0 300 0 0 1745 0 1745 -300 0 -300 0 0
-1745z"/>
<path d="M29720 16916 l0 -1746 300 0 300 0 0 510 0 510 413 0 c443 0 561 7
757 46 304 61 510 163 674 334 177 186 261 420 273 766 12 356 -46 612 -188
823 -179 268 -471 416 -942 477 -98 13 -265 17 -854 21 l-733 5 0 -1746z
m1473 1179 c364 -48 545 -176 614 -435 25 -92 24 -326 0 -435 -43 -188 -150
-337 -289 -404 -162 -77 -286 -91 -795 -91 l-403 0 0 690 0 690 379 0 c280 0
410 -4 494 -15z"/>
<path d="M20907 14591 c-3 -11 -99 -256 -213 -544 l-208 -525 -71 -6 c-38 -3
-176 -13 -305 -21 -129 -8 -300 -20 -380 -25 -80 -6 -202 -13 -272 -17 -71 -3
-128 -10 -128 -16 0 -5 10 -17 23 -27 17 -13 825 -699 855 -725 3 -3 -254
-1022 -284 -1127 -3 -10 -1 -18 4 -18 6 0 228 138 493 306 266 168 489 308
495 311 7 2 233 -135 503 -306 271 -171 497 -311 502 -311 6 0 9 6 6 14 -3 8
-49 185 -102 393 -53 208 -117 457 -142 553 -27 105 -42 179 -37 186 8 11 788
675 851 724 13 10 23 22 23 27 0 6 -57 13 -127 16 -71 4 -191 11 -268 17 -77
5 -250 16 -385 25 -135 8 -274 18 -311 21 l-65 6 -204 512 c-112 281 -209 526
-214 544 -12 36 -31 42 -39 13z"/>
<path d="M22960 13332 c-310 -236 -323 -247 -290 -250 27 -2 7118 476 7285
491 22 2 -1470 4 -3315 5 l-3355 2 -325 -248z"/>
<path d="M11945 13563 c164 -15 7258 -493 7285 -491 33 3 20 14 -290 250
l-325 248 -3355 -2 c-1845 -1 -3337 -3 -3315 -5z"/>
</g>
</svg>
